<?xml version="1.0" encoding="UTF-8" standalone="no"?>
<!-- Created with Inkscape (http://www.inkscape.org/) -->

<svg
   xmlns:dc="http://purl.org/dc/elements/1.1/"
   xmlns:cc="http://creativecommons.org/ns#"
   xmlns:rdf="http://www.w3.org/1999/02/22-rdf-syntax-ns#"
   xmlns:svg="http://www.w3.org/2000/svg"
   xmlns="http://www.w3.org/2000/svg"
   xmlns:sodipodi="http://sodipodi.sourceforge.net/DTD/sodipodi-0.dtd"
   xmlns:inkscape="http://www.inkscape.org/namespaces/inkscape"
   width="210mm"
   height="297mm"
   viewBox="0 0 210 297"
   version="1.1"
   id="svg8"
   inkscape:version="0.92.4 (5da689c313, 2019-01-14)"
   sodipodi:docname="logo.svg">
  <defs
     id="defs2" />
  <sodipodi:namedview
     id="base"
     pagecolor="#ffffff"
     bordercolor="#666666"
     borderopacity="1.0"
     inkscape:pageopacity="0.0"
     inkscape:pageshadow="2"
     inkscape:zoom="1.16"
     inkscape:cx="318.2388"
     inkscape:cy="210.55178"
     inkscape:document-units="mm"
     inkscape:current-layer="layer1"
     showgrid="false"
     inkscape:window-width="210mm"
     inkscape:window-height="297mm"
     inkscape:window-x="-11"
     inkscape:window-y="-11"
     inkscape:window-maximized="1" />
  <metadata
     id="metadata5">
    <rdf:RDF>
      <cc:Work
         rdf:about="">
        <dc:format>image/svg+xml</dc:format>
        <dc:type
           rdf:resource="http://purl.org/dc/dcmitype/StillImage" />
        <dc:title />
      </cc:Work>
    </rdf:RDF>
  </metadata>
  <g
     inkscape:label="Layer 1"
     inkscape:groupmode="layer"
     id="layer1">
    <path
       style="fill:#000000;stroke-width:0.26458332"
       d="m 30.408833,296.93875 c -1.296008,-0.21238 1.303444,-0.38079 0,0 z m 3.57188,0 c -0.57358,-0.3029 0.547505,-0.33003 0,0 z m -0.66146,-0.26458 c -1.296031,-0.21235 1.303451,-0.38083 0,0 z m -9.39271,-0.26458 c -0.57358,-0.30291 0.547506,-0.33005 0,0 z m 4.63021,-0.0614 c -2.368854,-0.004 1.51252,-0.33001 0.548283,0 -0.182761,0 -0.365522,0 -0.548283,0 z m 9.921878,0.0614 c -0.57361,-0.3029 0.54752,-0.33006 0,0 z m -11.773958,-0.30636 c -2.114784,-0.14731 2.094219,-0.18691 0,0 z m -3.30729,-0.22281 c -0.573612,-0.30289 0.547513,-0.33004 0,0 z m 1.05833,-0.26458 c -0.57358,-0.30291 0.547506,-0.33005 0,0 z m -2.38125,-0.26459 c -0.57358,-0.3029 0.547505,-0.33003 0,0 z m 1.85208,-0.008 c -1.866783,-0.50478 -0.02134,-0.66415 0.07571,-1e-5 h -0.07571 z m 3.175,0.008 c -0.57358,-0.3029 0.547505,-0.33003 0,0 z m 9.789588,0 c -0.57361,-0.30289 0.54751,-0.33004 0,0 z m -10.715628,-0.26458 c -1.296031,-0.21235 1.303451,-0.38083 0,0 z m 5.68854,-0.0283 c -3.977872,0.22077 -7.976783,-0.80405 -11.406215,-2.82192 -1.673202,-0.77239 -0.958146,-0.9461 0.293715,-0.13278 1.093798,-0.50345 0.09841,0.79315 1.173236,0.17819 -0.361478,0.59246 1.688117,1.03356 2.379518,1.18605 1.976341,0.17496 -0.599839,-0.59709 -1.245519,-0.95513 -2.500909,-0.95788 -4.813028,-2.35647 -6.895125,-4.03509 -0.241687,1.35752 -0.471868,-1.22018 -1.564643,-1.36447 -2.277772,-1.99092 -3.977738,-4.56001 -5.3472559,-7.23983 -0.0093,1.36974 1.4324509,2.37769 1.5619139,3.70417 -0.8749259,-1.33457 -0.9205849,-0.21327 -1.0721539,-1.91479 -0.378342,0.42991 -0.94922,-0.4882 -0.767431,-1.07158 -0.620955,-1.36338 -0.986603,-2.77154 -1.047991,-4.26279 -0.447977,-1.71366 -0.202202,-1.43866 0.461706,0.0349 1.167818,2.46447 2.4388869,4.86605 4.1719859,6.98621 1.056368,1.38108 2.354947,2.56273 3.507663,3.86448 0.692784,-0.73207 0.81124,1.23016 2.099378,1.4475 0.678362,0.73831 2.116106,1.21589 2.574768,1.41463 0.19828,1.10474 2.32196,0.10264 1.635862,1.06792 1.52692,0.61637 3.064023,1.1928 4.724168,1.28656 -0.595165,-0.34668 -3.277176,-0.47938 -1.684907,-1.05034 1.194755,-0.39928 2.579191,0.21482 3.847578,0.20894 1.392453,0.0112 2.925355,-0.0524 4.039109,-1.00191 -0.920787,1.41142 1.008095,0.40226 1.746173,0.27674 1.816335,-0.50277 1.474725,-0.54895 -0.18761,-0.31566 -2.067914,0.29719 -0.05951,-0.58931 0.904765,-0.61314 1.99996,-0.22276 3.66883,-1.36841 5.44581,-2.21269 0.51485,0.52833 -0.20605,-0.70317 0.74342,-0.24719 -0.56301,-0.89601 1.39115,-0.80644 1.78295,-1.80556 1.15716,-0.85412 0.77761,-1.35657 1.79773,-1.59544 0.8462,-1.13194 0.4483,-0.93134 1.57304,-1.79619 0.86922,-1.43496 2.22108,-2.6516 2.4083,-4.39505 0.9717,-0.49104 1.27077,-1.95515 1.41524,-2.87276 -0.0279,0.007 0.76395,-0.91287 0.63779,-2.21861 0.44677,-2.43843 0.83155,-4.97829 0.34331,-7.42807 -0.51999,-2.85332 -2.16476,-5.29982 -3.41743,-7.86682 -1.28588,-2.07827 -3.1026,-3.70497 -4.97115,-5.24103 -1.82611,-1.14457 -3.66533,-2.25989 -5.79751,-2.72161 -2.557863,-0.82217 -5.28177,-1.22673 -7.964748,-0.93495 -4.334224,0.0688 -8.684857,1.01789 -12.470041,3.17956 -1.618397,0.82327 -3.161112,1.88535 -4.585806,2.97743 -1.48047,1.99882 -2.642987,4.3529 -2.552659,6.89575 -0.07494,1.39977 -0.149876,2.79955 -0.2248139,4.19932 -0.284264,-1.58536 -0.440514,-1.74332 -0.429693,-0.039 -0.582069,-1.42072 -0.500728,0.39907 -0.991636,0.31992 0.257107,0.56764 -2.054913,2.31945 -1.041521,0.72882 0.564251,-2.30561 0.239155,-4.73685 0.43039,-7.09515 -0.840925,0.92969 -0.309459,1.83197 -1.128342,2.72505 -0.831019,0.98896 -0.162712,2.37506 -0.763915,3.49265 -1.080292,-0.14315 0.326955,-2.22088 -0.693132,-0.52916 -0.603697,-0.37222 -0.372923,-2.16358 0.0188,-2.93248 0.299934,-0.75229 1.230531,-2.38776 1.162313,-2.62448 -1.602211,1.46335 -3.125933,2.99254 -4.204085,4.8955 -0.407305,0.68607 -2.57551395,1.20068 -2.29398695,0.099 -0.03285,-2.35229 1.63876295,-4.19635 2.05142895,-6.45556 0.590312,-2.08089 2.347,-3.58829 3.455705,-5.41429 1.428254,-1.67583 3.097257,-3.14737 4.6185689,-4.74424 1.034761,0.33751 0.86476,-1.20877 0.914088,0.24319 0.612033,0.42117 -0.724492,0.28914 -0.66851,0.94708 -0.9774769,-0.37833 -1.9771639,1.82364 -0.5346639,0.90268 1.8361299,-1.53173 3.9192899,-2.81327 5.8841309,-4.09861 3.038011,-1.42933 6.20678,-2.50737 9.420677,-3.46417 -0.998239,-0.72498 1.20181,0.27689 1.852668,-0.33293 0.957425,-0.19613 -0.164886,-1.8296 0.04385,-2.66349 -0.473586,-1.74069 0.160731,-1.27433 0.361197,0.0463 0.638323,0.0424 0.07571,-2.04016 0.243897,-2.82964 0.03681,-0.6667 -0.22898,-3.11612 0.446001,-2.48632 1.101377,0.53866 -1.336899,-1.17977 -1.036457,0.0443 0.385595,0.98078 0.620694,2.68362 0.02487,0.79429 -0.451688,-1.7301 -0.588818,1.10267 -0.879746,1.7045 -0.361012,2.09181 -0.211596,-0.65041 -0.476952,-1.40583 -0.139778,-0.87047 0.731791,1.49915 0.459368,-0.7217 0.451623,-0.7592 2.523602,-1.49469 1.249375,-2.27914 0.768298,0.0687 2.208771,-0.33134 2.048813,-0.62208 -0.298543,-0.87876 1.740434,-0.50446 2.427828,-0.68375 0.874308,0.0458 3.376277,-0.18681 1.326066,0.35938 -0.605254,0.30618 2.339701,-0.35058 2.189391,-0.0529 -1.500896,1.00217 1.22092,-0.27352 1.86569,0.42748 -0.16333,0.76212 -0.3116,0.28462 1.16246,0.36879 1.66469,0.15938 0.47513,0.96043 2.21032,0.50286 1.5207,0.3514 3.0414,0.70281 4.56211,1.05421 -0.37054,0.79841 1.79559,-0.21252 0.71124,0.64279 2.19642,-0.10205 4.24363,0.92567 6.45226,0.81998 0.91051,0.0808 2.8285,0.17086 3.10687,0.2458 -0.70727,-0.31804 -3.40404,0.77064 -1.71269,0.51293 0.58797,-0.26228 2.98513,-0.17862 2.26727,-0.74913 -0.76803,-0.52939 1.33245,0.34451 0.7429,-0.47345 1.51015,0.24884 0.27718,1.36721 -0.65293,1.39867 -1.93952,0.65835 0.22711,0.29925 1.09103,0.26295 0.45103,-0.23019 1.87364,-1.10004 0.93736,0.26366 -0.63539,0.80721 -1.40059,-0.56939 -1.18065,0.69721 -0.52789,0.71373 -3.00254,-0.40924 -1.89228,0.32267 1.0996,0.75691 -1.73801,0.13838 -2.34286,0.29986 -2.17988,-0.0917 -0.33596,0.0808 0.8149,0.2078 1.30629,0.24104 2.59736,0.29041 3.84233,-0.24086 -0.53969,0.86873 -1.9059,0.71152 -2.81032,1.01675 -2.10782,-0.002 -4.23129,0.13175 -6.26122,-0.54604 -0.14347,0.63618 1.91046,0.74818 2.65107,1.17346 1.21004,0.56707 1.30572,0.58628 2.4738,0.78388 3.24633,0.94005 6.56412,1.6468 9.89393,2.22365 -2.68137,0.27717 -5.27757,-0.60805 -7.91218,-0.96892 -0.16496,0.62821 2.24682,0.35156 2.38678,0.99602 -1.1274,1.46287 2.61463,-0.43464 1.01009,0.69687 -0.19432,0.11254 1.93268,-0.29323 2.71236,0.0544 2.03217,0.0261 1.22506,0.36196 -0.25032,0.7708 -1.59497,0.44703 1.30422,0.18148 1.96459,0.27084 0.79541,-0.34395 2.78269,0.42669 1.15173,0.72264 -1.65469,-0.14898 -3.4077,0.19304 -4.92977,-0.61829 0.52113,0.72934 1.61934,0.83154 2.21681,1.72328 1.32041,-0.18134 2.75735,-0.13435 3.98565,-0.75648 -0.87946,1.10444 1.36937,0.87046 2.07926,0.91562 -0.64016,0.70761 -1.80176,0.0695 -2.79085,0.31468 -0.69302,-0.0674 -3.07518,0.42258 -1.45442,0.71178 1.6437,0.3211 1.06444,-0.59719 2.45758,-0.41578 1.84989,-0.14902 1.00792,0.10117 1.86094,0.63475 -1.6029,0.11023 -3.28942,0.13747 -4.92406,-0.005 0.8923,1.10733 1.7846,2.21466 2.6769,3.32199 -0.077,0.83463 0.96991,1.0193 0.011,0.75151 1.0552,0.87263 1.86062,2.15724 2.10841,3.47784 0.21322,2.09306 -0.42183,0.66088 -0.98301,-0.4642 -0.5116,-0.13913 0.6815,1.89404 0.8528,2.58712 0.6037,1.44579 -0.34916,1.93108 -0.27029,2.17339 0.47243,1.71247 0.32012,3.59991 0.40143,5.38067 -0.15063,1.72664 -0.30126,3.45328 -0.45189,5.17992 -0.0601,-1.95433 0.008,-3.92359 -0.54202,-5.82083 -0.062,0.84876 -0.0824,2.7673 -0.16886,2.98756 0.25425,-1.27194 -1.06002,-2.28972 -0.51751,-0.48729 0.68544,1.81172 -0.12847,0.98712 -0.15449,2.24925 -0.24728,2.07424 0.39572,0.79159 0.46806,0.91551 -0.26201,1.18382 -0.22873,2.39077 -0.22527,3.59538 -0.82105,-1.82822 -0.22456,1.28613 -1.04193,-0.52916 0.20094,0.65056 -0.2233,3.03236 -0.36739,1.42315 -0.13314,-1.17865 1.04377,-1.8112 0.78195,-2.99909 0.0583,-1.21895 0.11656,-2.43789 0.17484,-3.65684 -0.89163,0.55337 -0.58253,1.77618 -1.12657,2.52335 0.15594,1.89091 -0.38815,1.01166 -0.28186,-0.39193 -0.0939,-2.46738 -0.18779,-4.93477 -0.28168,-7.40216 1.28664,0.0786 -0.42641,2.93728 0.82919,1.41987 -0.33472,-2.19885 0.90399,0.50564 0.36951,-1.5624 -0.13506,-1.19768 -0.59026,-1.50522 -0.5618,-2.61462 -0.53304,-1.72994 -0.25834,1.06448 -0.37022,1.69362 -0.42709,-0.69294 -0.56161,-0.92796 -0.24135,0.6837 -0.25768,1.37855 -0.82604,-0.91645 -0.79613,-1.55199 -0.77469,-2.17491 -1.58848,-4.33028 -2.98289,-6.19559 -0.58985,-1.15952 -1.54915,-2.03168 -2.42981,-2.96499 1.63522,0.95184 0.4547,-0.97387 -0.48687,-1.18826 -1.09964,0.0563 -1.88116,-0.78926 -2.74274,-1.42475 -1.01037,-0.87783 -2.22232,-1.44297 -3.38497,-2.08458 0.70692,-0.91163 -1.78072,-0.11022 -1.67852,-0.9636 1.42226,-0.91073 -0.99223,0.48887 -1.21085,-0.80538 -1.14881,-0.18268 -1.77684,-0.37365 -2.33554,-0.84591 -1.18064,0.12807 -2.22315,-0.31633 -3.24171,-0.86001 1.236,0.49269 2.24313,-0.25446 0.92604,-0.12946 -0.1984,-0.77481 -1.38444,0.30736 -1.04272,-0.66149 -0.0696,0.5611 -2.14689,0.58029 -1.32901,-0.15862 1.99123,0.75998 -0.80799,-1.15769 -0.94866,0.12924 -0.81581,0.34481 -2.45238,-1.64869 -2.14433,-0.64301 0.21277,1.30801 -1.53679,-1.07229 0.0407,-1.17171 -1.46993,-0.29762 -2.40536,1.69587 -3.884059,1.08671 -1.301595,0.6815 1.046739,0.51811 1.690869,0.59095 0.86231,0.48328 1.87492,0.37604 2.86194,0.7844 0.89706,0.35859 2.29584,0.50914 2.56284,1.23403 1.07526,0.0967 1.97959,0.91445 2.98612,1.30108 0.0877,-0.44929 1.55708,1.29853 2.32972,1.63576 1.12837,0.74448 1.629,0.84648 2.18143,1.98309 0.64188,1.00631 1.69834,1.02382 2.39307,1.84742 1.32598,0.97125 0.30161,1.09227 0.32762,1.06158 1.07555,0.1837 1.54967,1.33239 2.20111,2.24922 0.88406,0.5966 1.0256,2.43959 1.21991,2.44652 0.27868,0.23534 -0.12497,0.54644 0.61471,0.96709 1.19241,2.61894 1.74605,5.44361 2.21932,8.26066 -0.0414,2.7821 0.25398,5.59839 -0.56755,8.30127 -0.6225,3.39731 -2.27049,6.49057 -4.00705,9.42835 -0.98276,0.90711 -1.48551,2.51113 -2.82829,2.89551 0.24877,-1.10294 1.28156,-0.53155 1.70932,-1.92379 1.31796,-2.08817 2.74628,-4.20629 3.57571,-6.5134 -0.2941,0.0214 -0.99627,1.7948 -1.44467,2.47863 -1.28984,2.44237 -3.08822,4.56254 -4.89841,6.63285 0.95723,0.076 0.17976,0.3958 -0.64537,1.40591 -1.60522,1.28607 -3.3886,2.42835 -5.15596,3.48447 -2.19432,0.95723 -4.38816,1.91604 -6.78746,2.20833 -1.64561,0.50024 -3.315933,0.3648 -5.004532,0.35465 z m 0.61093,-0.26262 c 1.627673,0.0972 2.086846,-0.1282 0.258572,-0.45399 -0.75739,-0.0722 -3.354724,-0.15279 -1.651177,0.47466 0.464164,-0.007 0.92861,-0.014 1.392605,-0.0207 z m 3.600358,-0.2591 c 1.83593,-0.15232 -1.706083,-0.24445 0,0 z m -9.293108,-0.39299 c 1.713277,-1.27247 -1.574818,0.57245 0,0 z m 1.50995,0.10753 c 2.114787,-0.14731 -2.094221,-0.18692 0,0 z m 9.194268,0.0377 c 1.49436,-0.60643 -2.386648,-0.83267 -0.41034,-0.0557 0.10651,0.119 0.27765,0.0242 0.41034,0.0557 z m -11.762548,-0.40983 c 1.713171,-1.27243 -1.574783,0.57245 0,0 z m 13.085458,-0.0145 c 1.26358,-0.32851 1.53828,-0.5717 2.05052,-0.79892 0.59019,0.0913 0.79403,-0.72896 1.87612,-0.78452 0.35473,0.13789 1.03657,-1.09664 -0.39276,-0.24452 -1.42629,0.46003 -2.71387,1.57389 -4.26148,1.46207 -0.15353,0.76739 0.20633,0.46303 0.7276,0.36589 z m -9.348608,-1.18007 c 1.836042,-0.15232 -1.706108,-0.24445 0,0 z m -3.54982,-1.03743 c 1.296031,-0.21235 -1.303451,-0.38083 0,0 z m 9.524998,0 c 1.296,-0.21237 -1.303441,-0.38081 0,0 z m 8.33437,0 c 0.57358,-0.30291 -0.5475,-0.33005 0,0 z m -7.1658,-0.28548 c 1.83604,-0.15232 -1.706106,-0.24445 0,0 z m 0.28664,-1.03744 c 0.57359,-0.30292 -0.54753,-0.33001 0,0 z m 1.30086,-0.28547 c 1.83604,-0.15232 -1.70611,-0.24445 0,0 z m 0.8158,-0.2437 c 0.57358,-0.3029 -0.5475,-0.33003 0,0 z m 9.0151,-0.61697 c 1.14581,-0.19129 1.92938,-2.08016 0.47041,-0.71629 -0.37646,0.44503 -2.3118,1.72066 -0.47041,0.71629 z m -0.58447,-5.99761 c 0.62088,-0.30133 1.7938,-2.57334 0.55988,-0.97207 -0.0673,0.23348 -0.89333,0.96574 -0.55988,0.97207 z M 9.1098801,281.06372 c 0.573584,-0.3029 -0.547511,-0.33003 0,0 z m 40.7458309,-1.32291 c 0.57358,-0.30291 -0.5475,-0.33005 0,0 z m 0,-1.5875 c 0.57358,-0.30291 -0.5475,-0.33005 0,0 z m 6.04648,0 c 0.62058,-0.87947 0.78413,-2.37845 1.22956,-3.49533 0.0823,-1.94054 -0.259,-0.27258 -0.52066,0.7172 -0.13101,0.87801 -0.74347,2.19039 -0.7089,2.77813 z M 8.3161301,277.88872 c 0.573584,-0.3029 -0.547511,-0.33003 0,0 z m 42.9065909,-0.61736 c 0.3139,-0.89365 -0.62608,-0.004 -0.0428,0.0428 z m 0.52917,-1.32291 c 0.3139,-0.89365 -0.62609,-0.004 -0.0428,0.0428 z m 5.56224,-2.88837 c 0.13281,-1.89796 -0.2933,-0.96357 -0.121,0.46302 0.0403,-0.15434 0.0807,-0.30868 0.121,-0.46302 z m -4.54801,-2.31511 c 0.57361,-0.30289 -0.54751,-0.33004 0,0 z m 4.8126,-0.59531 c 0.13281,-1.89796 -0.2933,-0.96357 -0.121,0.46302 0.0403,-0.15434 0.0807,-0.30868 0.121,-0.46302 z m 7.24112,-1.38906 c 0.0896,-0.6758 0.7078,-3.06549 -0.17594,-2.54653 -0.2261,1.08595 0.008,2.42337 -0.0431,3.60486 0.0731,-0.35273 0.14581,-0.70583 0.21905,-1.05833 z m -12.02615,-0.46853 c 0.2687,-2.02486 -0.57591,0.27656 0,0 z m 12.67243,-0.45751 c 0.57361,-0.3029 -0.54751,-0.33006 0,0 z m -12.96458,-1.85209 c 0.57358,-0.3029 -0.5475,-0.33003 0,0 z m 13.22917,-1.15282 c 0.47865,-1.88149 0.99651,0.5305 0.9227,-1.36293 0.0116,-1.40881 -0.60168,-2.74181 -0.85974,-4.1179 -0.39975,0.93198 0.46481,2.20832 0.56562,3.27665 0.18115,2.27227 -0.74138,-1.90773 -0.69363,-0.8964 -0.18252,0.91295 0.69522,2.36841 -0.23233,2.90016 -0.23471,0.42841 -0.15025,0.86215 0.29738,0.20042 z m 1.62876,-0.0989 c 0.16693,-2.07043 -0.36905,-0.2444 -0.0613,0.1506 l 0.0609,-0.1506 z m -1.84959,-3.59862 c 0.0743,-0.4164 -0.46509,-3.33254 -0.74778,-1.76884 0.26605,0.4042 0.37241,1.87466 0.74778,1.76884 z m -1.88982,-0.44131 c 0.39584,-1.219 -0.41696,-2.00326 -0.77007,-3.00362 0.388,-0.91163 -1.79211,-2.15894 -0.90227,-0.93048 0.67133,0.72151 0.23491,1.95632 1.26937,2.52056 0.0459,0.51224 -0.19733,1.17926 0.40297,1.41354 z M 4.3138311,260.08597 c 1.005534,-0.31019 0.08708,-2.79404 -0.426984,-1.12832 -0.351298,0.25218 -0.02536,1.47461 0.426984,1.12832 z M 64.153331,259.0491 c 0.24112,-0.83868 -1.03888,-1.94386 -0.8252,-2.80338 0.92743,-0.8082 -0.73099,-1.76264 -0.99876,-2.63842 -1.27805,-2.06391 -3.03612,-3.84932 -5.06533,-5.18124 1.91521,2.04061 4.04131,3.91459 5.3705,6.41821 1.06741,1.379 0.3607,1.66074 -0.46164,0.24754 -1.33199,-0.75982 -1.59151,0.7536 -0.27904,0.83657 -0.24693,-1.87834 0.80223,0.45676 1.2984,0.99417 0.11526,0.52751 0.58279,2.17912 0.96107,2.12655 z m -2.61186,-3.47356 c -0.35716,0.47123 -0.23078,-1.09385 0.17639,-0.17639 l -0.13356,0.13356 z m 3.21936,2.86606 c -0.0937,-0.43948 -0.48342,-2.70048 -1.29118,-1.94541 0.42867,0.48949 0.80531,1.94571 1.29118,1.94541 z m 2.5243,-0.13203 c 0.31859,-1.22931 -1.012,-1.31398 0,0 z m -0.45199,-1.41111 c 0.3139,-0.89366 -0.62608,-0.004 -0.0428,0.0428 z m -12.21493,-0.17639 c 0.57358,-0.3029 -0.5475,-0.33003 0,0 z m 10.05416,-0.26458 c 0.57362,-0.3029 -0.54752,-0.33006 0,0 z m 1.86284,-0.26459 c 0.14252,-0.21 -1.21844,-2.82333 -1.04046,-1.78016 0.37365,0.52784 0.54561,1.46033 1.04046,1.78016 z m -2.12742,-0.26458 c 0.57358,-0.3029 -0.5475,-0.33003 0,0 z m -10.58333,-0.52917 c 0.57358,-0.3029 -0.5475,-0.33003 0,0 z m -0.52917,-0.79375 c 0.57358,-0.3029 -0.5475,-0.33003 0,0 z m 7.53381,-0.083 c 2.02294,-0.7445 -0.84073,0.27385 -0.0936,-0.75679 -0.39868,-1.12506 -0.0197,-0.65372 -1.23785,-1.23608 -1.51991,-1.34743 1.4701,0.0786 -0.38149,-0.65475 1.19687,1.23575 1.35333,0.067 0.15881,-0.70656 -0.93255,-0.81926 -1.73796,-1.94645 -2.82829,-2.38032 -0.6753,-0.54047 -1.70674,-2.01488 -2.4017,-1.61602 0.62033,0.72366 0.66424,0.79902 1.62386,1.57424 0.90399,-0.14362 1.24547,1.52614 1.70998,0.91114 -0.57923,0.90644 1.70331,0.82551 1.44421,2.17004 -0.43898,1.22847 1.87358,1.48075 1.48368,2.77481 0.17414,-0.0266 0.34828,-0.0531 0.52243,-0.0797 z m -0.35766,-0.71072 c -1.16645,-0.88572 -0.4931,-1.07245 0.0999,1e-5 z m -4.5147,-5.02708 c -1.28949,-1.03126 0.3887,-0.45493 0,0 z m -0.80937,-0.52917 c -0.57358,-0.30292 0.54753,-0.33001 0,0 z m 11.1125,6.35 c 0.57361,-0.30289 -0.54751,-0.33004 0,0 z m -0.24896,-0.52916 c 0.43125,-0.49305 -1.14342,-0.79778 0,0 z m -13.22917,-0.26459 c 0.43127,-0.49299 -1.14341,-0.79782 0,0 z m 12.43842,0 c -0.0106,-0.9565 -1.12728,-1.42343 -0.13229,0 z m -2.92904,-1.32291 c 0.57362,-0.3029 -0.54752,-0.33006 0,0 z m 2.11667,0 c 0.57359,-0.30291 -0.54751,-0.33005 0,0 z m -12.93219,-0.52917 c -0.13558,-0.75788 -1.34778,-1.19554 -0.0999,-1e-5 z m 11.44323,-0.0259 c 0.12507,-0.80581 -2.39526,-1.07021 -0.59479,-0.30118 0.20312,0.0858 0.3753,0.2571 0.59479,0.30118 z m 1.23169,-0.76781 c 0.27734,-0.92331 -1.06883,-1.01325 0,0 z m -2.65315,-0.52917 c 0.57361,-0.30289 -0.54751,-0.33004 0,0 z m -0.51355,-0.26458 c 0.43127,-0.49299 -1.14341,-0.79782 0,0 z m -4.49791,-0.26458 c 0.43124,-0.49304 -1.14342,-0.79778 0,0 z m 6.89594,0 c -0.13559,-0.75788 -1.34777,-1.19556 -0.0999,-1e-5 z m -0.94913,-1.05834 c 0.77683,-0.1065 -1.79089,-2.03096 -0.47989,-0.42809 0.15418,0.1938 0.1283,0.55881 0.47989,0.42809 z m -1.16753,-0.26458 c -0.13559,-0.75787 -1.34777,-1.19555 -0.0999,-1e-5 z m -6.88226,-0.26458 c 0.11803,-0.50598 -2.32924,-1.61677 -0.58526,-0.42071 0.20241,0.10743 0.3409,0.4307 0.58526,0.42071 z m 2.73217,-0.007 c 0.0534,-0.3022 -2.08857,-2.25995 -1.67873,-1.32323 0.56551,0.40654 1.07022,1.03424 1.67873,1.32323 z m -4.29514,-1.40137 c 0.55671,-0.52562 1.35791,-0.2793 -0.0995,-0.97276 -1.1995,-0.53279 0.11119,1.45044 0.0221,1.27233 l 0.0473,-0.18286 z m -1.11217,-0.17901 c 0.57359,-0.30291 -0.54751,-0.33005 0,0 z m 3.175,0 c 0.57359,-0.30291 -0.54751,-0.33005 0,0 z m 1.32292,-0.26459 c 0.57358,-0.3029 -0.5475,-0.33003 0,0 z m -0.51355,-0.26458 c 0.43123,-0.49303 -1.14341,-0.79779 0,0 z m -5.30729,-0.26458 c 0.57362,-0.3029 -0.54752,-0.33006 0,0 z m 3.175,0 c 0.57362,-0.3029 -0.54752,-0.33006 0,0 z m -0.51355,-0.26459 c 0.43128,-0.493 -1.14341,-0.7978 0,0 z m 9.64168,-0.83552 c 2.11479,-0.14731 -2.09422,-0.18692 0,0 z m -15.74271,-0.22281 c 0.57358,-0.3029 -0.5475,-0.33003 0,0 z m 1.32292,-0.26458 c 0.57359,-0.30291 -0.54751,-0.33005 0,0 z m -0.79375,-0.26459 c 0.57358,-0.3029 -0.5475,-0.33003 0,0 z m -2.91042,-0.26458 c 0.57358,-0.3029 -0.5475,-0.33003 0,0 z m 1.20931,-0.29482 c 0.458,-1.4005 -1.18121,0.75455 -0.0185,0.03 z m 0.37819,0.29482 c 0.57358,-0.3029 -0.5475,-0.33003 0,0 z m 14.41979,0 c 1.29603,-0.21234 -1.30343,-0.38085 0,0 z m -13.36146,-0.26458 c 0.57362,-0.3029 -0.54752,-0.33006 0,0 z m -0.28663,-0.55006 c 1.83606,-0.1523 -1.70614,-0.24447 0,0 z m 9.81163,-0.24369 c 0.57362,-0.3029 -0.54752,-0.33006 0,0 z m -12.30312,-0.26459 c 1.03746,-1.21927 -1.68662,-0.70927 0,0 z m -11.773958,-0.52916 c 0.573586,-0.30291 -0.547509,-0.33005 0,0 z m 7.143748,0 c 0.57359,-0.30291 -0.54751,-0.33005 0,0 z m 13.49375,0 c 0.57359,-0.30291 -0.54751,-0.33005 0,0 z M 35.050683,241.8174 c 1.230348,-0.22894 -1.201881,-0.42969 -0.0075,0 z m 5.544608,0.0882 c 0.57358,-0.3029 -0.5475,-0.33003 0,0 z m 0.52917,0 c 0.57358,-0.3029 -0.5475,-0.33003 0,0 z m 2.38125,-0.008 c 0.49401,-0.31799 -2.06871,-0.8914 -0.26459,0 h 0.18888 z m 2.11666,0.008 c 0.57361,-0.30289 -0.54751,-0.33004 0,0 z m 9.26042,0 c 0.57358,-0.3029 -0.5475,-0.33003 0,0 z m -15.21354,-0.27268 c 1.24976,-0.0826 -2.30899,-1.05291 -0.63511,-0.15396 0.17532,0.19321 0.40186,0.1576 0.63511,0.15396 z m 8.33437,0.008 c 0.57361,-0.30289 -0.54751,-0.33004 0,0 z m -12.43541,-0.26458 c 0.57359,-0.30291 -0.547507,-0.33005 0,0 z m 5.63801,-0.004 c 0.0789,-0.8595 -1.83289,-0.62983 0,0 z m 0.84428,0.004 c 1.29603,-0.21235 -1.30345,-0.38083 0,0 z m 1.71979,0 c 0.57359,-0.30291 -0.54751,-0.33005 0,0 z m -0.66146,-0.26459 c 1.29604,-0.21234 -1.30343,-0.38083 0,0 z m -3.57187,-0.26458 c 0.57358,-0.3029 -0.5475,-0.33003 0,0 z m -0.22049,-0.61736 c 0.3139,-0.89366 -0.62608,-0.004 -0.0428,0.0428 z m 8.15799,0.0882 c 0.57358,-0.3029 -0.5475,-0.33003 0,0 z m 0.26458,-0.52916 c 0.57359,-0.30291 -0.54751,-0.33005 0,0 z m -0.13229,-1.05834 c 1.29604,-0.21236 -1.30345,-0.38081 0,0 z m 2.64583,-0.52916 c 1.29603,-0.21234 -1.30343,-0.38085 0,0 z m 5.82084,-0.79375 c 1.296,-0.21237 -1.30344,-0.38081 0,0 z m 1.71979,-0.26459 c 0.57358,-0.3029 -0.5475,-0.33003 0,0 z m -3.70417,-0.26458 c 0.57358,-0.3029 -0.5475,-0.33003 0,0 z m -2.24896,-0.83553 c 2.11478,-0.14731 -2.09422,-0.1869 0,0 z m -23.135418,-2.60405 c 0.431248,-0.49304 -1.143415,-0.79778 0,0 z m 11.758338,0 c 1.29603,-0.21235 -1.30345,-0.38083 0,0 z m -4.12309,-1.07922 c 1.83609,-0.15231 -1.706147,-0.24445 0,0 z m -5.269618,-0.50828 c 0.573586,-0.30291 -0.547509,-0.33005 0,0 z m 7.143748,63.23541 c -0.57358,-0.3029 0.54751,-0.33003 0,0 z m 2.91042,0 c -0.57358,-0.3029 0.54751,-0.33003 0,0 z m -15.874998,-0.26458 c -0.57358,-0.30291 0.547506,-0.33005 0,0 z m 16.404158,0 c -0.57358,-0.30293 0.54753,-0.33003 0,0 z m 0.79375,-0.26459 c -0.57358,-0.30292 0.54753,-0.33001 0,0 z m 1.32292,0 c -0.57358,-0.3029 0.54751,-0.33003 0,0 z m -23.812495,-0.26458 c -0.573587,-0.3029 0.547509,-0.33003 0,0 z m 3.174997,0 c -0.57358,-0.3029 0.547505,-0.33003 0,0 z m 19.843748,0 c -0.57358,-0.3029 0.54751,-0.33003 0,0 z m -22.489578,-0.26458 c -0.573587,-0.30291 0.547508,-0.33005 0,0 z m 23.018748,0 c -0.57358,-0.30291 0.54751,-0.33005 0,0 z m -23.547915,-0.26459 c -0.573587,-0.3029 0.547509,-0.33003 0,0 z m 22.224995,0 c -0.57358,-0.3029 0.54751,-0.33003 0,0 z m -22.754162,-0.26458 c -0.573588,-0.3029 0.547512,-0.33003 0,0 z m -1.869205,-0.32865 c -1.144751,-0.56675 -0.572177,-1.35172 0.34166,-0.0816 0.493481,0.22474 -0.197422,0.0643 -0.34166,0.0816 z m 1.340038,0.0641 c -0.573585,-0.30291 0.547512,-0.33005 0,0 z m -0.132291,-1.05834 c -1.29603,-0.21235 1.303444,-0.38082 0,0 z m 27.91354,0 c -0.57358,-0.3029 0.54751,-0.33003 0,0 z m -22.224998,-0.52916 c -0.57358,-0.30291 0.547506,-0.33005 0,0 z m -8.745822,-0.35278 c -0.474829,-0.38019 -1.430491,-1.4989 -2.266845,-2.12971 -0.594314,-0.44541 0.446338,1.53961 -0.73411,-0.16105 -0.566804,-0.51767 -0.419306,-1.92735 -1.451692,-1.66458 -0.313622,0.10764 0.577996,-1.15474 -0.499718,-0.60023 -0.9786109,-1.31903 -0.9317599,-0.13798 -0.690709,-1.64465 -0.3746829,-1.03354 -1.6103789,-1.51704 -1.1787549,-1.93593 -0.918932,0.40003 -0.606887,-0.1605 -0.985642,-0.99683 -0.601574,-0.91987 -0.733143,-1.16046 -0.27744,-1.63118 -1.430328,0.98623 0.05539,-2.4028 -0.891446,-1.0539 -0.951222,0.82475 0.203536,-1.07732 -0.672753,-0.90602 -0.418776,-2.09487 -0.324295,-4.2474 -0.49603,-6.37002 0.352443,2.14897 0.619106,4.42222 1.80797,6.27111 0.129655,1.2942 0.614116,2.48117 1.156066,3.65077 0.536238,0.40877 0.883595,1.90146 1.6327189,2.66362 1.413935,2.62102 3.900776,4.36634 5.901289,6.5086 h -0.188879 z m -2.598865,-2.29306 c -0.135594,-0.75787 -1.347774,-1.19555 -0.09989,-1e-5 z m -2.133448,-2.38125 c 0.431265,-0.49301 -1.1434119,-0.79779 0,0 z m -0.544782,-0.79375 c 0.573588,-0.3029 -0.5475119,-0.33003 0,0 z m -1.8520829,-2.91041 c 0.573588,-0.30291 -0.547513,-0.33005 0,0 z m -0.264583,-0.52917 c 0.573584,-0.3029 -0.547511,-0.33003 0,0 z m -0.264584,-0.52917 c 0.573587,-0.3029 -0.547509,-0.33003 0,0 z m -0.79375,-1.5875 c 0.573587,-0.3029 -0.547509,-0.33003 0,0 z m 22.4895869,11.06092 c -2.248803,-0.12614 2.202131,-0.19483 0.03829,9e-5 l -0.03829,-4.8e-4 z m -14.81667,-0.213 c -0.573587,-0.3029 0.547509,-0.33003 0,0 z m 8.33437,0 c -1.296001,-0.21235 1.303445,-0.38083 0,0 z m 1.7198,0 c -0.573612,-0.30289 0.547513,-0.33004 0,0 z m 2.64583,0 c -0.57358,-0.3029 0.547505,-0.33003 0,0 z m 3.30729,0 c -1.296031,-0.21235 1.303451,-0.38083 0,0 z m -7.54062,-0.52917 c -0.573612,-0.30289 0.547513,-0.33004 0,0 z m -7.143754,-0.26458 c -0.573584,-0.3029 0.547511,-0.33003 0,0 z m 6.614584,0 c -0.57358,-0.3029 0.547505,-0.33003 0,0 z m -5.512153,-0.35278 c -0.357159,0.47123 -0.230777,-1.09384 0.176388,-0.17639 l -0.133557,0.13356 z m 4.850693,0.0882 c -1.296031,-0.21235 1.303451,-0.38083 0,0 z m 27.302358,0 c 0.23779,-0.82631 1.72109,-1.50532 0.23097,-0.10904 l -0.0987,0.10904 z m -27.963818,-0.26459 c -0.57358,-0.3029 0.547505,-0.33003 0,0 z m -0.79375,-0.26458 c -0.57358,-0.3029 0.547505,-0.33003 0,0 z m -0.952487,-0.80617 c -1.415056,-0.70829 -2.733527,-1.82625 -3.899301,-2.95582 -0.725328,0.77013 -0.224513,-1.21413 -1.503686,-1.5183 -1.18011,-1.61779 0.730001,0.0466 1.243898,0.6725 1.373641,1.33942 2.737032,2.69078 4.317829,3.78917 l -0.15874,0.0124 z m 30.290005,0.0124 c -0.26404,-0.38875 0.88191,-0.84573 0.13229,0 z M 20.751543,288.2076 c -0.57358,-0.3029 0.547505,-0.33003 0,0 z m -4.762497,-1.5875 c -0.573588,-0.3029 0.547512,-0.33003 0,0 z m 25.897935,0 c -0.26404,-0.38875 0.88191,-0.84571 0.13229,0 z m 10.08539,0 c -0.57358,-0.30292 0.54753,-0.33001 0,0 z m -37.041658,-1.05833 c -0.573587,-0.3029 0.547509,-0.33003 0,0 z m 39.127098,-0.52917 c -0.26404,-0.38875 0.88191,-0.84571 0.13229,0 z M 8.9264891,284.64273 c -0.525327,-6.3e-4 -0.620051,-1.3641 0.148113,-0.14811 l -0.133559,0.13356 z m 44.6021619,-0.13929 c -0.26408,-0.38874 0.88193,-0.84574 0.13229,0 z m -8.20209,-0.52917 c -0.26404,-0.38876 0.88193,-0.84573 0.13229,0 z m 10.0854,-1.05833 c -0.57358,-0.30291 0.54751,-0.33005 0,0 z m 7.14375,0 c -0.57358,-0.30291 0.54751,-0.33005 0,0 z m 0,-0.79375 c -0.57358,-0.30291 0.54751,-0.33005 0,0 z m -50.5198,-0.26459 c -1.289782,-1.03161 0.388843,-0.45473 0,0 z m 51.31355,-0.26458 c -0.57358,-0.3029 0.54751,-0.33003 0,0 z m -7.67292,-0.26458 c -0.57358,-0.30291 0.54751,-0.33005 0,0 z m 7.9375,-0.26459 c -0.57358,-0.3029 0.54751,-0.33003 0,0 z m 0.0156,-0.52916 c -1.28988,-1.03176 0.3889,-0.45465 0,0 z m -1.33853,-0.26459 c -0.57358,-0.3029 0.54751,-0.33003 0,0 z m 1.6097,-0.46466 c -0.27515,0.66239 0.14052,-2.48868 0.50697,-2.21928 -0.0324,0.99767 0.19989,2.12154 -0.50697,2.21928 z m -6.63678,-0.85825 c -0.57358,-0.30291 0.54751,-0.33005 0,0 z m 5.68854,0 c -3.12906,-0.65638 1.52341,-0.46737 0,0 z m 1.76389,-0.0882 c -0.35716,0.47123 -0.23078,-1.09384 0.17639,-0.17639 l -0.13356,0.13356 z m -7.18785,-0.44097 c -0.57358,-0.30292 0.54753,-0.33001 0,0 z m 5.63941,-0.26458 c -0.47818,-0.31433 0.57028,-2.5559 0.54551,-2.5915 -0.26331,0.74088 -0.0777,2.23593 -0.54551,2.5915 z M 7.5223701,277.88885 c -0.573587,-0.3029 0.547509,-0.33003 0,0 z m 57.4586809,-0.0882 c -0.35716,0.47124 -0.23077,-1.09386 0.17638,-0.17639 l -0.13355,0.13356 z m -0.57327,-0.70556 c -0.57358,-0.3029 0.54751,-0.33003 0,0 z m 0.85346,-0.26458 c -1.54866,-0.44232 1.09578,-2.0832 -0.0334,-0.79835 -0.54455,0.22717 0.31726,0.70862 0.0334,0.79835 z m 0.46946,0 c -0.57358,-0.3029 0.54751,-0.33003 0,0 z M 7.3018841,275.4194 c -0.357159,0.47123 -0.230778,-1.09385 0.176388,-0.17639 l -0.133557,0.13356 z m 56.9095069,-0.11638 c -0.69507,0.67748 -0.54353,-2.77495 -0.10597,-0.70105 0.0652,0.24982 0.28948,0.44286 0.10597,0.70105 z m 3.10681,-0.85376 c -0.57358,-0.3029 0.54751,-0.33003 0,0 z m -3.12491,-1.12448 c -0.21711,1.25022 -0.20413,-2.87288 0.121,-0.46302 -0.0403,0.15434 -0.0807,0.30868 -0.121,0.46302 z m 2.88789,-0.27009 c -0.53731,-0.044 0.27927,-1.44049 2e-5,0 z m -2.40882,-0.45751 c -0.57358,-0.30293 0.54753,-0.33003 0,0 z M 4.6119621,272.3325 c -0.573587,-0.3029 0.547512,-0.33003 0,0 z m 0.529167,-0.26458 c -0.573587,-0.3029 0.547509,-0.33003 0,0 z m 59.9859619,-2.6e-4 c -0.77929,-0.34005 0.47719,-3.25013 0.13983,-1.4939 -0.0698,0.4572 0.0484,1.16708 -0.13983,1.4939 z m -6.54013,-1.32266 c -0.57358,-0.3029 0.54751,-0.33003 0,0 z M 5.4206271,268.49593 c -0.06734,1.93212 -0.76463,1.39445 -0.526903,-0.16071 0.399739,-1.44586 1.135376,-2.01474 0.5859,-0.13078 l -0.03747,0.18512 z m 3.73335,-1.54329 c -0.357155,0.47123 -0.230784,-1.09383 0.176389,-0.17639 l -0.133557,0.13356 z m 0.749653,-0.17639 c -0.573587,-0.3029 0.5475089,-0.33003 0,0 z m 0,-0.52916 c -0.573587,-0.30291 0.5475099,-0.33005 0,0 z m 48.4628409,-1.41111 c -0.35716,0.47123 -0.23078,-1.09385 0.17639,-0.17639 l -0.13356,0.13356 z m 6.35,-1.76389 c -1.16552,-0.34246 0.16482,-2.35663 0.0882,-0.66146 -0.0731,0.15453 0.13625,0.668 -0.0882,0.66146 z M 7.5223801,261.22001 c -0.573593,-0.30291 0.547514,-0.33005 0,0 z m 48.1541609,-5.55625 c -0.57358,-0.30291 0.54751,-0.33005 0,0 z m 1.32292,-4.7625 c -0.57358,-0.30291 0.54751,-0.33005 0,0 z M 9.6066491,250.37209 c 0.135628,-0.7579 1.3477689,-1.19553 0.0999,-10e-6 z m 2.6782299,-3.175 c -0.573584,-0.3029 0.547511,-0.33003 0,0 z m 1.322917,0 c -0.573588,-0.3029 0.547512,-0.33003 0,0 z m -0.529167,-0.52917 c -0.573584,-0.3029 0.547511,-0.33003 0,0 z m 53.710412,-0.31616 c -2.2488,-0.12613 2.20214,-0.19484 0.0383,8e-5 l -0.0383,-4.8e-4 z m -52.916662,-0.213 c -0.57359,-0.30292 0.547516,-0.33005 0,0 z m 49.587322,-0.0313 c -0.5897,0.1364 -3.44975,-0.61221 -1.73679,-0.4191 0.69378,0.10364 2.62088,-0.10874 2.45202,0.44386 -0.23841,-0.008 -0.47682,-0.0165 -0.71523,-0.0248 z m -15.45608,-0.49786 c -0.57358,-0.30292 0.54753,-0.33001 0,0 z m 17.72709,-0.26458 c -0.57358,-0.30291 0.54751,-0.33005 0,0 z m 0.52916,-0.26459 c -0.57358,-0.30292 0.54753,-0.33001 0,0 z m -0.55121,-0.55005 c -1.42136,-0.13997 1.32849,-0.25183 0.12968,0.005 z m -1.56545,-1.30203 c -0.57358,-0.3029 0.54751,-0.33003 0,0 z m 1.19062,0 c -1.296,-0.21237 1.30344,-0.38081 0,0 z m -6.48229,-0.26458 c -0.57358,-0.30291 0.54751,-0.33005 0,0 z m -22.63749,-0.79375 c -0.77348,-0.33884 0.93801,-0.71232 0.0913,0 z m 0.94166,0 c -0.57358,-0.30291 0.54751,-0.33005 0,0 z m -12.391318,-1.14653 c -0.357161,0.47123 -0.230779,-1.09385 0.17639,-0.17639 l -0.133557,0.13356 z m 1.01424,-0.97014 c -0.573612,-0.30289 0.547513,-0.33004 0,0 z m -1.32292,-0.79375 c -0.57358,-0.3029 0.547505,-0.33003 0,0 z m 1.29461,0 c -0.529374,-0.71502 1.090236,-1.25262 0,0 z m 0.55747,0 c -0.57358,-0.3029 0.547505,-0.33003 0,0 z m 0.82131,-1.12999 c -0.537288,-0.044 0.279265,-1.44048 3e-5,0 z m 30.632878,0.0717 c -0.26404,-0.38876 0.88191,-0.84572 0.13229,0 z m -33.516898,-0.72397 c -0.236071,1.38153 -0.05343,-1.54766 -0.106182,-2.05339 0.0629,0.68345 0.338581,1.37373 0.106182,2.05339 z m 2.57615,-0.32131 c -0.922024,0.90306 0.257876,-2.38089 0.38116,-0.31633 -0.127054,0.10544 -0.254102,0.2109 -0.38116,0.31633 z m -2.10094,-1.33597 c -0.573586,-0.30291 0.547509,-0.33005 0,0 z m 0.23236,-1.61203 c -0.666194,1.97171 -0.967123,0.32471 -0.135626,-0.64951 0.657505,-1.52301 2.379801,-1.96072 3.871536,-2.21039 1.23529,1.11665 -1.597238,-0.032 -2.065685,0.82825 -0.779071,1.04053 -0.731253,0.61891 -1.579161,1.86289 l -0.08969,0.16622 z m 28.739518,1.08286 c -1.29603,-0.21234 1.30343,-0.38085 0,0 z m 1.4552,-0.16025 c -2.37894,0.47572 0.93957,-0.42869 0.86983,-0.56105 -0.61119,0.002 -3.66747,0.31767 -1.98029,0.026 1.023,-0.50455 2.12469,0.0654 3.04575,-0.33559 1.57436,-1.15938 -0.91582,1.31575 0.76262,0.25991 0.85868,-0.33587 -1.13432,0.85758 -1.82618,0.47449 -0.29058,0.0454 -0.58115,0.0908 -0.87173,0.13625 z m -30.162488,-0.10433 c -0.573618,-0.3029 0.547518,-0.33006 0,0 z m 34.395828,0 c -0.57358,-0.30291 0.54751,-0.33005 0,0 z m -7.54063,-0.32597 c -2.36885,-0.004 1.51252,-0.33001 0.54828,0 -0.18276,0 -0.36552,0 -0.54828,0 z m -2.51354,-0.2032 c -0.57358,-0.3029 0.54751,-0.33003 0,0 z m 7.14375,-0.26458 c -0.57358,-0.30291 0.54751,-0.33005 0,0 z m -29.390798,-0.5793 c -1.549092,0.16245 0.723768,-0.33481 0.03862,-0.66989 0.848162,0.26822 0.770844,0.2724 -0.03862,0.66989 z m 29.919968,0.31471 c -0.57358,-0.3029 0.54751,-0.33003 0,0 z m 0.52916,-0.26458 c -0.57358,-0.30292 0.54753,-0.33001 0,0 z m -11.64166,-0.26458 c -0.57358,-0.30291 0.54751,-0.33005 0,0 z m -0.52917,-0.26459 c -0.57358,-0.3029 0.54751,-0.33003 0,0 z m -1.19062,-0.26458 c -1.29603,-0.21234 1.30343,-0.38085 0,0 z m -1.05834,-0.26458 c -1.296,-0.21237 1.30344,-0.38081 0,0 z m -2.24896,-0.52917 c -0.57358,-0.30292 0.54753,-0.33001 0,0 z m -2.38124,-0.52917 c -0.57361,-0.30289 0.54751,-0.33004 0,0 z"
       id="path826"
       inkscape:connector-curvature="0" />
  </g>
</svg>
