<svg xmlns="http://www.w3.org/2000/svg" viewBox="0 0 210 297"><defs/><path d="M30.409 296.94c-1.296-.21238 1.3034-.38079 0 0zm3.5719 0c-.57358-.3029.5475-.33003 0 0zm-.66146-.26458c-1.296-.21235 1.3035-.38083 0 0zm-9.3927-.26458c-.57358-.30291.54751-.33005 0 0zm4.6302-.0614c-2.3689-.004 1.5125-.33001.54828 0h-.54828zm9.9219.0614c-.57361-.3029.54752-.33006 0 0zm-11.774-.30636c-2.1148-.14731 2.0942-.18691 0 0zm-3.3073-.22281c-.57361-.30289.54751-.33004 0 0zm1.0583-.26458c-.57358-.30291.54751-.33005 0 0zm-2.3812-.26459c-.57358-.3029.5475-.33003 0 0zm1.8521-.008c-1.8668-.50478-.02134-.66415.07571-.00001h-.07571zm3.175.008c-.57358-.3029.5475-.33003 0 0zm9.7896 0c-.57361-.30289.54751-.33004 0 0zm-10.716-.26458c-1.296-.21235 1.3035-.38083 0 0zm5.6885-.0283c-3.9779.22077-7.9768-.80405-11.406-2.8219-1.6732-.77239-.95815-.9461.29372-.13278 1.0938-.50345.09841.79315 1.1732.17819-.36148.59246 1.6881 1.0336 2.3795 1.186 1.9763.17496-.59984-.59709-1.2455-.95513-2.5009-.95788-4.813-2.3565-6.8951-4.0351-.24169 1.3575-.47187-1.2202-1.5646-1.3645-2.2778-1.9909-3.9777-4.56-5.3473-7.2398-.0093 1.3697 1.4325 2.3777 1.5619 3.7042-.87493-1.3346-.92058-.21327-1.0722-1.9148-.37834.42991-.94922-.4882-.76743-1.0716-.62096-1.3634-.9866-2.7715-1.048-4.2628-.44798-1.7137-.2022-1.4387.46171.0349 1.1678 2.4645 2.4389 4.866 4.172 6.9862 1.0564 1.3811 2.3549 2.5627 3.5077 3.8645.69278-.73207.81124 1.2302 2.0994 1.4475.67836.73831 2.1161 1.2159 2.5748 1.4146.19828 1.1047 2.322.10264 1.6359 1.0679 1.5269.61637 3.064 1.1928 4.7242 1.2866-.59516-.34668-3.2772-.47938-1.6849-1.0503 1.1948-.39928 2.5792.21482 3.8476.20894 1.3925.0112 2.9254-.0524 4.0391-1.0019-.92079 1.4114 1.0081.40226 1.7462.27674 1.8163-.50277 1.4747-.54895-.18761-.31566-2.0679.29719-.05951-.58931.90476-.61314 2-.22276 3.6688-1.3684 5.4458-2.2127.51485.52833-.20605-.70317.74342-.24719-.56301-.89601 1.3912-.80644 1.783-1.8056 1.1572-.85412.77761-1.3566 1.7977-1.5954.8462-1.1319.4483-.93134 1.573-1.7962.86922-1.435 2.2211-2.6516 2.4083-4.395.9717-.49104 1.2708-1.9552 1.4152-2.8728-.0279.007.76395-.91287.63779-2.2186.44677-2.4384.83155-4.9783.34331-7.4281-.51999-2.8533-2.1648-5.2998-3.4174-7.8668-1.2859-2.0783-3.1026-3.705-4.9712-5.241-1.8261-1.1446-3.6653-2.2599-5.7975-2.7216-2.5579-.82217-5.2818-1.2267-7.9647-.93495-4.3342.0688-8.6849 1.0179-12.47 3.1796-1.6184.82327-3.1611 1.8854-4.5858 2.9774-1.4805 1.9988-2.643 4.3529-2.5527 6.8958-.07494 1.3998-.14988 2.7996-.22481 4.1993-.28426-1.5854-.44051-1.7433-.42969-.039-.58207-1.4207-.50073.39907-.99164.31992.25711.56764-2.0549 2.3194-1.0415.72882.56425-2.3056.23916-4.7368.43039-7.0952-.84092.92969-.30946 1.832-1.1283 2.725-.83102.98896-.16271 2.3751-.76392 3.4926-1.0803-.14315.32696-2.2209-.69313-.52916-.6037-.37222-.37292-2.1636.0188-2.9325.29993-.75229 1.2305-2.3878 1.1623-2.6245-1.6022 1.4634-3.1259 2.9925-4.2041 4.8955-.4073.68607-2.5755 1.2007-2.294.099-.03285-2.3523 1.6388-4.1964 2.0514-6.4556.59031-2.0809 2.347-3.5883 3.4557-5.4143 1.4283-1.6758 3.0973-3.1474 4.6186-4.7442 1.0348.33751.86476-1.2088.91409.24319.61203.42117-.72449.28914-.66851.94708-.97748-.37833-1.9772 1.8236-.53466.90268 1.8361-1.5317 3.9193-2.8133 5.8841-4.0986 3.038-1.4293 6.2068-2.5074 9.4207-3.4642-.99824-.72498 1.2018.27689 1.8527-.33293.95742-.19613-.16489-1.8296.04385-2.6635-.47359-1.7407.16073-1.2743.3612.0463.63832.0424.07571-2.0402.2439-2.8296.03681-.6667-.22898-3.1161.446-2.4863 1.1014.53866-1.3369-1.1798-1.0365.0443.3856.98078.62069 2.6836.02487.79429-.45169-1.7301-.58882 1.1027-.87975 1.7045-.36101 2.0918-.2116-.65041-.47695-1.4058-.13978-.87047.73179 1.4992.45937-.7217.45162-.7592 2.5236-1.4947 1.2494-2.2791.7683.0687 2.2088-.33134 2.0488-.62208-.29854-.87876 1.7404-.50446 2.4278-.68375.87431.0458 3.3763-.18681 1.3261.35938-.60525.30618 2.3397-.35058 2.1894-.0529-1.5009 1.0022 1.2209-.27352 1.8657.42748-.16333.76212-.3116.28462 1.1625.36879 1.6647.15938.47513.96043 2.2103.50286 1.5207.3514 3.0414.70281 4.5621 1.0542-.37054.79841 1.7956-.21252.71124.64279 2.1964-.10205 4.2436.92567 6.4523.81998.91051.0808 2.8285.17086 3.1069.2458-.70727-.31804-3.404.77064-1.7127.51293.58797-.26228 2.9851-.17862 2.2673-.74913-.76803-.52939 1.3324.34451.7429-.47345 1.5102.24884.27718 1.3672-.65293 1.3987-1.9395.65835.22711.29925 1.091.26295.45103-.23019 1.8736-1.1.93736.26366-.63539.80721-1.4006-.56939-1.1806.69721-.52789.71373-3.0025-.40924-1.8923.32267 1.0996.75691-1.738.13838-2.3429.29986-2.1799-.0917-.33596.0808.8149.2078 1.3063.24104 2.5974.29041 3.8423-.24086-.53969.86873-1.9059.71152-2.8103 1.0168-2.1078-.002-4.2313.13175-6.2612-.54604-.14347.63618 1.9105.74818 2.6511 1.1735 1.21.56707 1.3057.58628 2.4738.78388 3.2463.94005 6.5641 1.6468 9.8939 2.2236-2.6814.27717-5.2776-.60805-7.9122-.96892-.16496.62821 2.2468.35156 2.3868.99602-1.1274 1.4629 2.6146-.43464 1.0101.69687-.19432.11254 1.9327-.29323 2.7124.0544 2.0322.0261 1.2251.36196-.25032.7708-1.595.44703 1.3042.18148 1.9646.27084.79541-.34395 2.7827.42669 1.1517.72264-1.6547-.14898-3.4077.19304-4.9298-.61829.52113.72934 1.6193.83154 2.2168 1.7233 1.3204-.18134 2.7574-.13435 3.9856-.75648-.87946 1.1044 1.3694.87046 2.0793.91562-.64016.70761-1.8018.0695-2.7908.31468-.69302-.0674-3.0752.42258-1.4544.71178 1.6437.3211 1.0644-.59719 2.4576-.41578 1.8499-.14902 1.0079.10117 1.8609.63475-1.6029.11023-3.2894.13747-4.9241-.005.8923 1.1073 1.7846 2.2147 2.6769 3.322-.077.83463.96991 1.0193.011.75151 1.0552.87263 1.8606 2.1572 2.1084 3.4778.21322 2.0931-.42183.66088-.98301-.4642-.5116-.13913.6815 1.894.8528 2.5871.6037 1.4458-.34916 1.9311-.27029 2.1734.47243 1.7125.32012 3.5999.40143 5.3807-.15063 1.7266-.30126 3.4533-.45189 5.1799-.0601-1.9543.008-3.9236-.54202-5.8208-.062.84876-.0824 2.7673-.16886 2.9876.25425-1.2719-1.06-2.2897-.51751-.48729.68544 1.8117-.12847.98712-.15449 2.2492-.24728 2.0742.39572.79159.46806.91551-.26201 1.1838-.22873 2.3908-.22527 3.5954-.82105-1.8282-.22456 1.2861-1.0419-.52916.20094.65056-.2233 3.0324-.36739 1.4232-.13314-1.1786 1.0438-1.8112.78195-2.9991.0583-1.219.11656-2.4379.17484-3.6568-.89163.55337-.58253 1.7762-1.1266 2.5234.15594 1.8909-.38815 1.0117-.28186-.39193-.0939-2.4674-.18779-4.9348-.28168-7.4022 1.2866.0786-.42641 2.9373.82919 1.4199-.33472-2.1988.90399.50564.36951-1.5624-.13506-1.1977-.59026-1.5052-.5618-2.6146-.53304-1.7299-.25834 1.0645-.37022 1.6936-.42709-.69294-.56161-.92796-.24135.6837-.25768 1.3786-.82604-.91645-.79613-1.552-.77469-2.1749-1.5885-4.3303-2.9829-6.1956-.58985-1.1595-1.5492-2.0317-2.4298-2.965 1.6352.95184.4547-.97387-.48687-1.1883-1.0996.0563-1.8812-.78926-2.7427-1.4248-1.0104-.87783-2.2223-1.443-3.385-2.0846.70692-.91163-1.7807-.11022-1.6785-.9636 1.4223-.91073-.99223.48887-1.2108-.80538-1.1488-.18268-1.7768-.37365-2.3355-.84591-1.1806.12807-2.2232-.31633-3.2417-.86001 1.236.49269 2.2431-.25446.92604-.12946-.1984-.77481-1.3844.30736-1.0427-.66149-.0696.5611-2.1469.58029-1.329-.15862 1.9912.75998-.80799-1.1577-.94866.12924-.81581.34481-2.4524-1.6487-2.1443-.64301.21277 1.308-1.5368-1.0723.0407-1.1717-1.4699-.29762-2.4054 1.6959-3.8841 1.0867-1.3016.6815 1.0467.51811 1.6909.59095.86231.48328 1.8749.37604 2.8619.7844.89706.35859 2.2958.50914 2.5628 1.234 1.0753.0967 1.9796.91445 2.9861 1.3011.0877-.44929 1.5571 1.2985 2.3297 1.6358 1.1284.74448 1.629.84648 2.1814 1.9831.64188 1.0063 1.6983 1.0238 2.3931 1.8474 1.326.97125.30161 1.0923.32762 1.0616 1.0756.1837 1.5497 1.3324 2.2011 2.2492.88406.5966 1.0256 2.4396 1.2199 2.4465.27868.23534-.12497.54644.61471.96709 1.1924 2.6189 1.746 5.4436 2.2193 8.2607-.0414 2.7821.25398 5.5984-.56755 8.3013-.6225 3.3973-2.2705 6.4906-4.007 9.4284-.98276.90711-1.4855 2.5111-2.8283 2.8955.24877-1.1029 1.2816-.53155 1.7093-1.9238 1.318-2.0882 2.7463-4.2063 3.5757-6.5134-.2941.0214-.99627 1.7948-1.4447 2.4786-1.2898 2.4424-3.0882 4.5625-4.8984 6.6328.95723.076.17976.3958-.64537 1.4059-1.6052 1.2861-3.3886 2.4284-5.156 3.4845-2.1943.95723-4.3882 1.916-6.7875 2.2083-1.6456.50024-3.3159.3648-5.0045.35465zm.61093-.26262c1.6277.0972 2.0868-.1282.25857-.45399-.75739-.0722-3.3547-.15279-1.6512.47466.46416-.007.92861-.014 1.3926-.0207zm3.6004-.2591c1.8359-.15232-1.7061-.24445 0 0zm-9.2931-.39299c1.7133-1.2725-1.5748.57245 0 0zm1.51.10753c2.1148-.14731-2.0942-.18692 0 0zm9.1943.0377c1.4944-.60643-2.3866-.83267-.41034-.0557.10651.119.27765.0242.41034.0557zm-11.763-.40983c1.7132-1.2724-1.5748.57245 0 0zm13.085-.0145c1.2636-.32851 1.5383-.5717 2.0505-.79892.59019.0913.79403-.72896 1.8761-.78452.35473.13789 1.0366-1.0966-.39276-.24452-1.4263.46003-2.7139 1.5739-4.2615 1.4621-.15353.76739.20633.46303.7276.36589zm-9.3486-1.1801c1.836-.15232-1.7061-.24445 0 0zm-3.5498-1.0374c1.296-.21235-1.3035-.38083 0 0zm9.525 0c1.296-.21237-1.3034-.38081 0 0zm8.3344 0c.57358-.30291-.5475-.33005 0 0zm-7.1658-.28548c1.836-.15232-1.7061-.24445 0 0zm.28664-1.0374c.57359-.30292-.54753-.33001 0 0zm1.3009-.28547c1.836-.15232-1.7061-.24445 0 0zm.8158-.2437c.57358-.3029-.5475-.33003 0 0zm9.0151-.61697c1.1458-.19129 1.9294-2.0802.47041-.71629-.37646.44503-2.3118 1.7207-.47041.71629zm-.58447-5.9976c.62088-.30133 1.7938-2.5733.55988-.97207-.0673.23348-.89333.96574-.55988.97207zm-38.329-2.1167c.57358-.3029-.54751-.33003 0 0zm40.746-1.3229c.57358-.30291-.5475-.33005 0 0zm0-1.5875c.57358-.30291-.5475-.33005 0 0zm6.0465 0c.62058-.87947.78413-2.3784 1.2296-3.4953.0823-1.9405-.259-.27258-.52066.7172-.13101.87801-.74347 2.1904-.7089 2.7781zm-47.586-.26459c.57358-.3029-.54751-.33003 0 0zm42.907-.61736c.3139-.89365-.62608-.004-.0428.0428zm.52917-1.3229c.3139-.89365-.62609-.004-.0428.0428zm5.5622-2.8884c.13281-1.898-.2933-.96357-.121.46302.0403-.15434.0807-.30868.121-.46302zm-4.548-2.3151c.57361-.30289-.54751-.33004 0 0zm4.8126-.59531c.13281-1.898-.2933-.96357-.121.46302.0403-.15434.0807-.30868.121-.46302zm7.2411-1.3891c.0896-.6758.7078-3.0655-.17594-2.5465-.2261 1.086.008 2.4234-.0431 3.6049.0731-.35273.14581-.70583.21905-1.0583zm-12.026-.46853c.2687-2.0249-.57591.27656 0 0zm12.672-.45751c.57361-.3029-.54751-.33006 0 0zm-12.965-1.8521c.57358-.3029-.5475-.33003 0 0zm13.229-1.1528c.47865-1.8815.99651.5305.9227-1.3629.0116-1.4088-.60168-2.7418-.85974-4.1179-.39975.93198.46481 2.2083.56562 3.2766.18115 2.2723-.74138-1.9077-.69363-.8964-.18252.91295.69522 2.3684-.23233 2.9002-.23471.42841-.15025.86215.29738.20042zm1.6288-.0989c.16693-2.0704-.36905-.2444-.0613.1506l.0609-.1506zm-1.8496-3.5986c.0743-.4164-.46509-3.3325-.74778-1.7688.26605.4042.37241 1.8747.74778 1.7688zm-1.8898-.44131c.39584-1.219-.41696-2.0033-.77007-3.0036.388-.91163-1.7921-2.1589-.90227-.93048.67133.72151.23491 1.9563 1.2694 2.5206.0459.51224-.19733 1.1793.40297 1.4135zm-59.306-.60485c1.0055-.31019.08708-2.794-.42698-1.1283-.3513.25218-.02536 1.4746.42698 1.1283zm59.839-1.0369c.24112-.83868-1.0389-1.9439-.8252-2.8034.92743-.8082-.73099-1.7626-.99876-2.6384-1.278-2.0639-3.0361-3.8493-5.0653-5.1812 1.9152 2.0406 4.0413 3.9146 5.3705 6.4182 1.0674 1.379.3607 1.6607-.46164.24754-1.332-.75982-1.5915.7536-.27904.83657-.24693-1.8783.80223.45676 1.2984.99417.11526.52751.58279 2.1791.96107 2.1266zm-2.6119-3.4736c-.35716.47123-.23078-1.0938.17639-.17639l-.13356.13356zm3.2194 2.8661c-.0937-.43948-.48342-2.7005-1.2912-1.9454.42867.48949.80531 1.9457 1.2912 1.9454zm2.5243-.13203c.31859-1.2293-1.012-1.314 0 0zm-.45199-1.4111c.3139-.89366-.62608-.004-.0428.0428zm-12.215-.17639c.57358-.3029-.5475-.33003 0 0zm10.054-.26458c.57362-.3029-.54752-.33006 0 0zm1.8628-.26459c.14252-.21-1.2184-2.8233-1.0405-1.7802.37365.52784.54561 1.4603 1.0405 1.7802zm-2.1274-.26458c.57358-.3029-.5475-.33003 0 0zm-10.583-.52917c.57358-.3029-.5475-.33003 0 0zm-.52917-.79375c.57358-.3029-.5475-.33003 0 0zm7.5338-.083c2.0229-.7445-.84073.27385-.0936-.75679-.39868-1.1251-.0197-.65372-1.2378-1.2361-1.5199-1.3474 1.4701.0786-.38149-.65475 1.1969 1.2358 1.3533.067.15881-.70656-.93255-.81926-1.738-1.9464-2.8283-2.3803-.6753-.54047-1.7067-2.0149-2.4017-1.616.62033.72366.66424.79902 1.6239 1.5742.90399-.14362 1.2455 1.5261 1.71.91114-.57923.90644 1.7033.82551 1.4442 2.17-.43898 1.2285 1.8736 1.4808 1.4837 2.7748.17414-.0266.34828-.0531.52243-.0797zm-.35766-.71072c-1.1664-.88572-.4931-1.0724.0999.00001zm-4.5147-5.0271c-1.2895-1.0313.3887-.45493 0 0zm-.80937-.52917c-.57358-.30292.54753-.33001 0 0zm11.112 6.35c.57361-.30289-.54751-.33004 0 0zm-.24896-.52916c.43125-.49305-1.1434-.79778 0 0zm-13.229-.26459c.43127-.49299-1.1434-.79782 0 0zm12.438 0c-.0106-.9565-1.1273-1.4234-.13229 0zm-2.929-1.3229c.57362-.3029-.54752-.33006 0 0zm2.1167 0c.57359-.30291-.54751-.33005 0 0zm-12.932-.52917c-.13558-.75788-1.3478-1.1955-.0999-.00001zm11.443-.0259c.12507-.80581-2.3953-1.0702-.59479-.30118.20312.0858.3753.2571.59479.30118zm1.2317-.76781c.27734-.92331-1.0688-1.0132 0 0zm-2.6532-.52917c.57361-.30289-.54751-.33004 0 0zm-.51355-.26458c.43127-.49299-1.1434-.79782 0 0zm-4.4979-.26458c.43124-.49304-1.1434-.79778 0 0zm6.8959 0c-.13559-.75788-1.3478-1.1956-.0999-.00001zm-.94913-1.0583c.77683-.1065-1.7909-2.031-.47989-.42809.15418.1938.1283.55881.47989.42809zm-1.1675-.26458c-.13559-.75787-1.3478-1.1956-.0999-.00001zm-6.8823-.26458c.11803-.50598-2.3292-1.6168-.58526-.42071.20241.10743.3409.4307.58526.42071zm2.7322-.007c.0534-.3022-2.0886-2.26-1.6787-1.3232.56551.40654 1.0702 1.0342 1.6787 1.3232zm-4.2951-1.4014c.55671-.52562 1.3579-.2793-.0995-.97276-1.1995-.53279.11119 1.4504.0221 1.2723l.0473-.18286zm-1.1122-.17901c.57359-.30291-.54751-.33005 0 0zm3.175 0c.57359-.30291-.54751-.33005 0 0zm1.3229-.26459c.57358-.3029-.5475-.33003 0 0zm-.51355-.26458c.43123-.49303-1.1434-.79779 0 0zm-5.3073-.26458c.57362-.3029-.54752-.33006 0 0zm3.175 0c.57362-.3029-.54752-.33006 0 0zm-.51355-.26459c.43128-.493-1.1434-.7978 0 0zm9.6417-.83552c2.1148-.14731-2.0942-.18692 0 0zm-15.743-.22281c.57358-.3029-.5475-.33003 0 0zm1.3229-.26458c.57359-.30291-.54751-.33005 0 0zm-.79375-.26459c.57358-.3029-.5475-.33003 0 0zm-2.9104-.26458c.57358-.3029-.5475-.33003 0 0zm1.2093-.29482c.458-1.4005-1.1812.75455-.0185.03zm.37819.29482c.57358-.3029-.5475-.33003 0 0zm14.42 0c1.296-.21234-1.3034-.38085 0 0zm-13.361-.26458c.57362-.3029-.54752-.33006 0 0zm-.28663-.55006c1.8361-.1523-1.7061-.24447 0 0zm9.8116-.24369c.57362-.3029-.54752-.33006 0 0zm-12.303-.26459c1.0375-1.2193-1.6866-.70927 0 0zm-11.774-.52916c.57359-.30291-.54751-.33005 0 0zm7.1437 0c.57359-.30291-.54751-.33005 0 0zm13.494 0c.57359-.30291-.54751-.33005 0 0zm-18.245-.35278c1.2303-.22894-1.2019-.42969-.0075 0zm5.5446.0882c.57358-.3029-.5475-.33003 0 0zm.52917 0c.57358-.3029-.5475-.33003 0 0zm2.3812-.008c.49401-.31799-2.0687-.8914-.26459 0h.18888zm2.1167.008c.57361-.30289-.54751-.33004 0 0zm9.2604 0c.57358-.3029-.5475-.33003 0 0zm-15.214-.27268c1.2498-.0826-2.309-1.0529-.63511-.15396.17532.19321.40186.1576.63511.15396zm8.3344.008c.57361-.30289-.54751-.33004 0 0zm-12.435-.26458c.57359-.30291-.54751-.33005 0 0zm5.638-.004c.0789-.8595-1.8329-.62983 0 0zm.84428.004c1.296-.21235-1.3034-.38083 0 0zm1.7198 0c.57359-.30291-.54751-.33005 0 0zm-.66146-.26459c1.296-.21234-1.3034-.38083 0 0zm-3.5719-.26458c.57358-.3029-.5475-.33003 0 0zm-.22049-.61736c.3139-.89366-.62608-.004-.0428.0428zm8.158.0882c.57358-.3029-.5475-.33003 0 0zm.26458-.52916c.57359-.30291-.54751-.33005 0 0zm-.13229-1.0583c1.296-.21236-1.3034-.38081 0 0zm2.6458-.52916c1.296-.21234-1.3034-.38085 0 0zm5.8208-.79375c1.296-.21237-1.3034-.38081 0 0zm1.7198-.26459c.57358-.3029-.5475-.33003 0 0zm-3.7042-.26458c.57358-.3029-.5475-.33003 0 0zm-2.249-.83553c2.1148-.14731-2.0942-.1869 0 0zm-23.135-2.604c.43125-.49304-1.1434-.79778 0 0zm11.758 0c1.296-.21235-1.3034-.38083 0 0zm-4.1231-1.0792c1.8361-.15231-1.7061-.24445 0 0zm-5.2696-.50828c.57359-.30291-.54751-.33005 0 0zm7.1437 63.235c-.57358-.3029.54751-.33003 0 0zm2.9104 0c-.57358-.3029.54751-.33003 0 0zm-15.875-.26458c-.57358-.30291.54751-.33005 0 0zm16.404 0c-.57358-.30293.54753-.33003 0 0zm.79375-.26459c-.57358-.30292.54753-.33001 0 0zm1.3229 0c-.57358-.3029.54751-.33003 0 0zm-23.812-.26458c-.57359-.3029.54751-.33003 0 0zm3.175 0c-.57358-.3029.5475-.33003 0 0zm19.844 0c-.57358-.3029.54751-.33003 0 0zm-22.49-.26458c-.57359-.30291.54751-.33005 0 0zm23.019 0c-.57358-.30291.54751-.33005 0 0zm-23.548-.26459c-.57359-.3029.54751-.33003 0 0zm22.225 0c-.57358-.3029.54751-.33003 0 0zm-22.754-.26458c-.57359-.3029.54751-.33003 0 0zm-1.8692-.32865c-1.1448-.56675-.57218-1.3517.34166-.0816.49348.22474-.19742.0643-.34166.0816zm1.34.0641c-.57358-.30291.54751-.33005 0 0zm-.13229-1.0583c-1.296-.21235 1.3034-.38082 0 0zm27.914 0c-.57358-.3029.54751-.33003 0 0zm-22.225-.52916c-.57358-.30291.54751-.33005 0 0zm-8.7458-.35278c-.47483-.38019-1.4305-1.4989-2.2668-2.1297-.59431-.44541.44634 1.5396-.73411-.16105-.5668-.51767-.41931-1.9274-1.4517-1.6646-.31362.10764.578-1.1547-.49972-.60023-.97861-1.319-.93176-.13798-.69071-1.6446-.37468-1.0335-1.6104-1.517-1.1788-1.9359-.91893.40003-.60689-.1605-.98564-.99683-.60157-.91987-.73314-1.1605-.27744-1.6312-1.4303.98623.05539-2.4028-.89145-1.0539-.95122.82475.20354-1.0773-.67275-.90602-.41878-2.0949-.3243-4.2474-.49603-6.37.35244 2.149.61911 4.4222 1.808 6.2711.12966 1.2942.61412 2.4812 1.1561 3.6508.53624.40877.8836 1.9015 1.6327 2.6636 1.4139 2.621 3.9008 4.3663 5.9013 6.5086h-.18888zm-2.5989-2.2931c-.13559-.75787-1.3478-1.1956-.09989-.00001zm-2.1334-2.3812c.43126-.49301-1.1434-.79779 0 0zm-.54478-.79375c.57359-.3029-.54751-.33003 0 0zm-1.8521-2.9104c.57359-.30291-.54751-.33005 0 0zm-.26458-.52917c.57358-.3029-.54751-.33003 0 0zm-.26458-.52917c.57359-.3029-.54751-.33003 0 0zm-.79375-1.5875c.57359-.3029-.54751-.33003 0 0zm22.49 11.061c-2.2488-.12614 2.2021-.19483.03829.00009l-.03829-.00048zm-14.817-.213c-.57359-.3029.54751-.33003 0 0zm8.3344 0c-1.296-.21235 1.3034-.38083 0 0zm1.7198 0c-.57361-.30289.54751-.33004 0 0zm2.6458 0c-.57358-.3029.5475-.33003 0 0zm3.3073 0c-1.296-.21235 1.3035-.38083 0 0zm-7.5406-.52917c-.57361-.30289.54751-.33004 0 0zm-7.1438-.26458c-.57358-.3029.54751-.33003 0 0zm6.6146 0c-.57358-.3029.5475-.33003 0 0zm-5.5122-.35278c-.35716.47123-.23078-1.0938.17639-.17639l-.13356.13356zm4.8507.0882c-1.296-.21235 1.3035-.38083 0 0zm27.302 0c.23779-.82631 1.7211-1.5053.23097-.10904l-.0987.10904zm-27.964-.26459c-.57358-.3029.5475-.33003 0 0zm-.79375-.26458c-.57358-.3029.5475-.33003 0 0zm-.95249-.80617c-1.4151-.70829-2.7335-1.8262-3.8993-2.9558-.72533.77013-.22451-1.2141-1.5037-1.5183-1.1801-1.6178.73.0466 1.2439.6725 1.3736 1.3394 2.737 2.6908 4.3178 3.7892l-.15874.0124zm30.29.0124c-.26404-.38875.88191-.84573.13229 0zm-29.338-.52917c-.57358-.3029.5475-.33003 0 0zm-4.7625-1.5875c-.57359-.3029.54751-.33003 0 0zm25.898 0c-.26404-.38875.88191-.84571.13229 0zm10.085 0c-.57358-.30292.54753-.33001 0 0zm-37.042-1.0583c-.57359-.3029.54751-.33003 0 0zm39.127-.52917c-.26404-.38875.88191-.84571.13229 0zm-45.131-.38987c-.52533-.00063-.62005-1.3641.14811-.14811l-.13356.13356zm44.602-.13929c-.26408-.38874.88193-.84574.13229 0zm-8.2021-.52917c-.26404-.38876.88193-.84573.13229 0zm10.085-1.0583c-.57358-.30291.54751-.33005 0 0zm7.1438 0c-.57358-.30291.54751-.33005 0 0zm0-.79375c-.57358-.30291.54751-.33005 0 0zm-50.52-.26459c-1.2898-1.0316.38884-.45473 0 0zm51.314-.26458c-.57358-.3029.54751-.33003 0 0zm-7.6729-.26458c-.57358-.30291.54751-.33005 0 0zm7.9375-.26459c-.57358-.3029.54751-.33003 0 0zm.0156-.52916c-1.2899-1.0318.3889-.45465 0 0zm-1.3385-.26459c-.57358-.3029.54751-.33003 0 0zm1.6097-.46466c-.27515.66239.14052-2.4887.50697-2.2193-.0324.99767.19989 2.1215-.50697 2.2193zm-6.6368-.85825c-.57358-.30291.54751-.33005 0 0zm5.6885 0c-3.1291-.65638 1.5234-.46737 0 0zm1.7639-.0882c-.35716.47123-.23078-1.0938.17639-.17639l-.13356.13356zm-7.1878-.44097c-.57358-.30292.54753-.33001 0 0zm5.6394-.26458c-.47818-.31433.57028-2.5559.54551-2.5915-.26331.74088-.0777 2.2359-.54551 2.5915zm-55.646-.26459c-.57359-.3029.54751-.33003 0 0zm57.459-.0882c-.35716.47124-.23077-1.0939.17638-.17639l-.13355.13356zm-.57327-.70556c-.57358-.3029.54751-.33003 0 0zm.85346-.26458c-1.5487-.44232 1.0958-2.0832-.0334-.79835-.54455.22717.31726.70862.0334.79835zm.46946 0c-.57358-.3029.54751-.33003 0 0zm-58.429-1.4111c-.35716.47123-.23078-1.0938.17639-.17639l-.13356.13356zm56.91-.11638c-.69507.67748-.54353-2.775-.10597-.70105.0652.24982.28948.44286.10597.70105zm3.1068-.85376c-.57358-.3029.54751-.33003 0 0zm-3.1249-1.1245c-.21711 1.2502-.20413-2.8729.121-.46302-.0403.15434-.0807.30868-.121.46302zm2.8879-.27009c-.53731-.044.27927-1.4405.00002 0zm-2.4088-.45751c-.57358-.30293.54753-.33003 0 0zm-60.06-.26468c-.57359-.3029.54751-.33003 0 0zm.52917-.26458c-.57359-.3029.54751-.33003 0 0zm59.986-.00026c-.77929-.34005.47719-3.2501.13983-1.4939-.0698.4572.0484 1.1671-.13983 1.4939zm-6.5401-1.3227c-.57358-.3029.54751-.33003 0 0zm-53.166-2.2491c-.06734 1.9321-.76463 1.3944-.5269-.16071.39974-1.4459 1.1354-2.0147.5859-.13078l-.03747.18512zm3.7334-1.5433c-.35716.47123-.23078-1.0938.17639-.17639l-.13356.13356zm.74965-.17639c-.57359-.3029.54751-.33003 0 0zm0-.52916c-.57359-.30291.54751-.33005 0 0zm48.463-1.4111c-.35716.47123-.23078-1.0938.17639-.17639l-.13356.13356zm6.35-1.7639c-1.1655-.34246.16482-2.3566.0882-.66146-.0731.15453.13625.668-.0882.66146zm-57.194-1.8521c-.57359-.30291.54751-.33005 0 0zm48.154-5.5562c-.57358-.30291.54751-.33005 0 0zm1.3229-4.7625c-.57358-.30291.54751-.33005 0 0zm-47.393-.52917c.13563-.7579 1.3478-1.1955.0999-.00001zm2.6782-3.175c-.57358-.3029.54751-.33003 0 0zm1.3229 0c-.57359-.3029.54751-.33003 0 0zm-.52917-.52917c-.57358-.3029.54751-.33003 0 0zm53.71-.31616c-2.2488-.12613 2.2021-.19484.0383.00008l-.0383-.00048zm-52.917-.213c-.57359-.30292.54752-.33005 0 0zm49.587-.0313c-.5897.1364-3.4498-.61221-1.7368-.4191.69378.10364 2.6209-.10874 2.452.44386-.23841-.008-.47682-.0165-.71523-.0248zm-15.456-.49786c-.57358-.30292.54753-.33001 0 0zm17.727-.26458c-.57358-.30291.54751-.33005 0 0zm.52916-.26459c-.57358-.30292.54753-.33001 0 0zm-.55121-.55005c-1.4214-.13997 1.3285-.25183.12968.005zm-1.5654-1.302c-.57358-.3029.54751-.33003 0 0zm1.1906 0c-1.296-.21237 1.3034-.38081 0 0zm-6.4823-.26458c-.57358-.30291.54751-.33005 0 0zm-22.637-.79375c-.77348-.33884.93801-.71232.0913 0zm.94166 0c-.57358-.30291.54751-.33005 0 0zm-12.391-1.1465c-.35716.47123-.23078-1.0938.17639-.17639l-.13356.13356zm1.0142-.97014c-.57361-.30289.54751-.33004 0 0zm-1.3229-.79375c-.57358-.3029.5475-.33003 0 0zm1.2946 0c-.52937-.71502 1.0902-1.2526 0 0zm.55747 0c-.57358-.3029.5475-.33003 0 0zm.82131-1.13c-.53729-.044.27926-1.4405.00003 0zm30.633.0717c-.26404-.38876.88191-.84572.13229 0zm-33.517-.72397c-.23607 1.3815-.05343-1.5477-.10618-2.0534.0629.68345.33858 1.3737.10618 2.0534zm2.5762-.32131c-.92202.90306.25788-2.3809.38116-.31633-.12705.10544-.2541.2109-.38116.31633zm-2.1009-1.336c-.57359-.30291.54751-.33005 0 0zm.23236-1.612c-.66619 1.9717-.96712.32471-.13563-.64951.6575-1.523 2.3798-1.9607 3.8715-2.2104 1.2353 1.1166-1.5972-.032-2.0657.82825-.77907 1.0405-.73125.61891-1.5792 1.8629l-.08969.16622zm28.74 1.0829c-1.296-.21234 1.3034-.38085 0 0zm1.4552-.16025c-2.3789.47572.93957-.42869.86983-.56105-.61119.002-3.6675.31767-1.9803.026 1.023-.50455 2.1247.0654 3.0458-.33559 1.5744-1.1594-.91582 1.3158.76262.25991.85868-.33587-1.1343.85758-1.8262.47449-.29058.0454-.58115.0908-.87173.13625zm-30.162-.10433c-.57362-.3029.54752-.33006 0 0zm34.396 0c-.57358-.30291.54751-.33005 0 0zm-7.5406-.32597c-2.3688-.004 1.5125-.33001.54828 0h-.54828zm-2.5135-.2032c-.57358-.3029.54751-.33003 0 0zm7.1438-.26458c-.57358-.30291.54751-.33005 0 0zm-29.391-.5793c-1.5491.16245.72377-.33481.03862-.66989.84816.26822.77084.2724-.03862.66989zm29.92.31471c-.57358-.3029.54751-.33003 0 0zm.52916-.26458c-.57358-.30292.54753-.33001 0 0zm-11.642-.26458c-.57358-.30291.54751-.33005 0 0zm-.52917-.26459c-.57358-.3029.54751-.33003 0 0zm-1.1906-.26458c-1.296-.21234 1.3034-.38085 0 0zm-1.0583-.26458c-1.296-.21237 1.3034-.38081 0 0zm-2.249-.52917c-.57358-.30292.54753-.33001 0 0zm-2.3812-.52917c-.57361-.30289.54751-.33004 0 0z"/></svg>