<?xml version="1.0" encoding="UTF-8"?>
<svg width="210mm" height="297mm" version="1.1" viewBox="0 0 210 297" xmlns="http://www.w3.org/2000/svg" xmlns:cc="http://creativecommons.org/ns#" xmlns:dc="http://purl.org/dc/elements/1.1/" xmlns:rdf="http://www.w3.org/1999/02/22-rdf-syntax-ns#">
<metadata>
<rdf:RDF>
<cc:Work rdf:about="">
<dc:format>image/svg+xml</dc:format>
<dc:type rdf:resource="http://purl.org/dc/dcmitype/StillImage"/>
<dc:title/>
</cc:Work>
</rdf:RDF>
</metadata>
<path d="m30.409 296.94c-1.296-0.21238 1.3034-0.38079 0 0zm3.5719 0c-0.57358-0.3029 0.5475-0.33003 0 0zm-0.66146-0.26458c-1.296-0.21235 1.3035-0.38083 0 0zm-9.3927-0.26458c-0.57358-0.30291 0.54751-0.33005 0 0zm4.6302-0.0614c-2.3689-4e-3 1.5125-0.33001 0.54828 0h-0.54828zm9.9219 0.0614c-0.57361-0.3029 0.54752-0.33006 0 0zm-11.774-0.30636c-2.1148-0.14731 2.0942-0.18691 0 0zm-3.3073-0.22281c-0.57361-0.30289 0.54751-0.33004 0 0zm1.0583-0.26458c-0.57358-0.30291 0.54751-0.33005 0 0zm-2.3812-0.26459c-0.57358-0.3029 0.5475-0.33003 0 0zm1.8521-8e-3c-1.8668-0.50478-0.02134-0.66415 0.07571-1e-5h-0.07571zm3.175 8e-3c-0.57358-0.3029 0.5475-0.33003 0 0zm9.7896 0c-0.57361-0.30289 0.54751-0.33004 0 0zm-10.716-0.26458c-1.296-0.21235 1.3035-0.38083 0 0zm5.6885-0.0283c-3.9779 0.22077-7.9768-0.80405-11.406-2.8219-1.6732-0.77239-0.95815-0.9461 0.29372-0.13278 1.0938-0.50345 0.09841 0.79315 1.1732 0.17819-0.36148 0.59246 1.6881 1.0336 2.3795 1.186 1.9763 0.17496-0.59984-0.59709-1.2455-0.95513-2.5009-0.95788-4.813-2.3565-6.8951-4.0351-0.24169 1.3575-0.47187-1.2202-1.5646-1.3645-2.2778-1.9909-3.9777-4.56-5.3473-7.2398-0.0093 1.3697 1.4325 2.3777 1.5619 3.7042-0.87493-1.3346-0.92058-0.21327-1.0722-1.9148-0.37834 0.42991-0.94922-0.4882-0.76743-1.0716-0.62096-1.3634-0.9866-2.7715-1.048-4.2628-0.44798-1.7137-0.2022-1.4387 0.46171 0.0349 1.1678 2.4645 2.4389 4.866 4.172 6.9862 1.0564 1.3811 2.3549 2.5627 3.5077 3.8645 0.69278-0.73207 0.81124 1.2302 2.0994 1.4475 0.67836 0.73831 2.1161 1.2159 2.5748 1.4146 0.19828 1.1047 2.322 0.10264 1.6359 1.0679 1.5269 0.61637 3.064 1.1928 4.7242 1.2866-0.59516-0.34668-3.2772-0.47938-1.6849-1.0503 1.1948-0.39928 2.5792 0.21482 3.8476 0.20894 1.3925 0.0112 2.9254-0.0524 4.0391-1.0019-0.92079 1.4114 1.0081 0.40226 1.7462 0.27674 1.8163-0.50277 1.4747-0.54895-0.18761-0.31566-2.0679 0.29719-0.05951-0.58931 0.90476-0.61314 2-0.22276 3.6688-1.3684 5.4458-2.2127 0.51485 0.52833-0.20605-0.70317 0.74342-0.24719-0.56301-0.89601 1.3912-0.80644 1.783-1.8056 1.1572-0.85412 0.77761-1.3566 1.7977-1.5954 0.8462-1.1319 0.4483-0.93134 1.573-1.7962 0.86922-1.435 2.2211-2.6516 2.4083-4.395 0.9717-0.49104 1.2708-1.9552 1.4152-2.8728-0.0279 7e-3 0.76395-0.91287 0.63779-2.2186 0.44677-2.4384 0.83155-4.9783 0.34331-7.4281-0.51999-2.8533-2.1648-5.2998-3.4174-7.8668-1.2859-2.0783-3.1026-3.705-4.9712-5.241-1.8261-1.1446-3.6653-2.2599-5.7975-2.7216-2.5579-0.82217-5.2818-1.2267-7.9647-0.93495-4.3342 0.0688-8.6849 1.0179-12.47 3.1796-1.6184 0.82327-3.1611 1.8854-4.5858 2.9774-1.4805 1.9988-2.643 4.3529-2.5527 6.8958-0.07494 1.3998-0.14988 2.7996-0.22481 4.1993-0.28426-1.5854-0.44051-1.7433-0.42969-0.039-0.58207-1.4207-0.50073 0.39907-0.99164 0.31992 0.25711 0.56764-2.0549 2.3194-1.0415 0.72882 0.56425-2.3056 0.23916-4.7368 0.43039-7.0952-0.84092 0.92969-0.30946 1.832-1.1283 2.725-0.83102 0.98896-0.16271 2.3751-0.76392 3.4926-1.0803-0.14315 0.32696-2.2209-0.69313-0.52916-0.6037-0.37222-0.37292-2.1636 0.0188-2.9325 0.29993-0.75229 1.2305-2.3878 1.1623-2.6245-1.6022 1.4634-3.1259 2.9925-4.2041 4.8955-0.4073 0.68607-2.5755 1.2007-2.294 0.099-0.03285-2.3523 1.6388-4.1964 2.0514-6.4556 0.59031-2.0809 2.347-3.5883 3.4557-5.4143 1.4283-1.6758 3.0973-3.1474 4.6186-4.7442 1.0348 0.33751 0.86476-1.2088 0.91409 0.24319 0.61203 0.42117-0.72449 0.28914-0.66851 0.94708-0.97748-0.37833-1.9772 1.8236-0.53466 0.90268 1.8361-1.5317 3.9193-2.8133 5.8841-4.0986 3.038-1.4293 6.2068-2.5074 9.4207-3.4642-0.99824-0.72498 1.2018 0.27689 1.8527-0.33293 0.95742-0.19613-0.16489-1.8296 0.04385-2.6635-0.47359-1.7407 0.16073-1.2743 0.3612 0.0463 0.63832 0.0424 0.07571-2.0402 0.2439-2.8296 0.03681-0.6667-0.22898-3.1161 0.446-2.4863 1.1014 0.53866-1.3369-1.1798-1.0365 0.0443 0.3856 0.98078 0.62069 2.6836 0.02487 0.79429-0.45169-1.7301-0.58882 1.1027-0.87975 1.7045-0.36101 2.0918-0.2116-0.65041-0.47695-1.4058-0.13978-0.87047 0.73179 1.4992 0.45937-0.7217 0.45162-0.7592 2.5236-1.4947 1.2494-2.2791 0.7683 0.0687 2.2088-0.33134 2.0488-0.62208-0.29854-0.87876 1.7404-0.50446 2.4278-0.68375 0.87431 0.0458 3.3763-0.18681 1.3261 0.35938-0.60525 0.30618 2.3397-0.35058 2.1894-0.0529-1.5009 1.0022 1.2209-0.27352 1.8657 0.42748-0.16333 0.76212-0.3116 0.28462 1.1625 0.36879 1.6647 0.15938 0.47513 0.96043 2.2103 0.50286 1.5207 0.3514 3.0414 0.70281 4.5621 1.0542-0.37054 0.79841 1.7956-0.21252 0.71124 0.64279 2.1964-0.10205 4.2436 0.92567 6.4523 0.81998 0.91051 0.0808 2.8285 0.17086 3.1069 0.2458-0.70727-0.31804-3.404 0.77064-1.7127 0.51293 0.58797-0.26228 2.9851-0.17862 2.2673-0.74913-0.76803-0.52939 1.3324 0.34451 0.7429-0.47345 1.5102 0.24884 0.27718 1.3672-0.65293 1.3987-1.9395 0.65835 0.22711 0.29925 1.091 0.26295 0.45103-0.23019 1.8736-1.1 0.93736 0.26366-0.63539 0.80721-1.4006-0.56939-1.1806 0.69721-0.52789 0.71373-3.0025-0.40924-1.8923 0.32267 1.0996 0.75691-1.738 0.13838-2.3429 0.29986-2.1799-0.0917-0.33596 0.0808 0.8149 0.2078 1.3063 0.24104 2.5974 0.29041 3.8423-0.24086-0.53969 0.86873-1.9059 0.71152-2.8103 1.0168-2.1078-2e-3 -4.2313 0.13175-6.2612-0.54604-0.14347 0.63618 1.9105 0.74818 2.6511 1.1735 1.21 0.56707 1.3057 0.58628 2.4738 0.78388 3.2463 0.94005 6.5641 1.6468 9.8939 2.2236-2.6814 0.27717-5.2776-0.60805-7.9122-0.96892-0.16496 0.62821 2.2468 0.35156 2.3868 0.99602-1.1274 1.4629 2.6146-0.43464 1.0101 0.69687-0.19432 0.11254 1.9327-0.29323 2.7124 0.0544 2.0322 0.0261 1.2251 0.36196-0.25032 0.7708-1.595 0.44703 1.3042 0.18148 1.9646 0.27084 0.79541-0.34395 2.7827 0.42669 1.1517 0.72264-1.6547-0.14898-3.4077 0.19304-4.9298-0.61829 0.52113 0.72934 1.6193 0.83154 2.2168 1.7233 1.3204-0.18134 2.7574-0.13435 3.9856-0.75648-0.87946 1.1044 1.3694 0.87046 2.0793 0.91562-0.64016 0.70761-1.8018 0.0695-2.7908 0.31468-0.69302-0.0674-3.0752 0.42258-1.4544 0.71178 1.6437 0.3211 1.0644-0.59719 2.4576-0.41578 1.8499-0.14902 1.0079 0.10117 1.8609 0.63475-1.6029 0.11023-3.2894 0.13747-4.9241-5e-3 0.8923 1.1073 1.7846 2.2147 2.6769 3.322-0.077 0.83463 0.96991 1.0193 0.011 0.75151 1.0552 0.87263 1.8606 2.1572 2.1084 3.4778 0.21322 2.0931-0.42183 0.66088-0.98301-0.4642-0.5116-0.13913 0.6815 1.894 0.8528 2.5871 0.6037 1.4458-0.34916 1.9311-0.27029 2.1734 0.47243 1.7125 0.32012 3.5999 0.40143 5.3807-0.15063 1.7266-0.30126 3.4533-0.45189 5.1799-0.0601-1.9543 8e-3 -3.9236-0.54202-5.8208-0.062 0.84876-0.0824 2.7673-0.16886 2.9876 0.25425-1.2719-1.06-2.2897-0.51751-0.48729 0.68544 1.8117-0.12847 0.98712-0.15449 2.2492-0.24728 2.0742 0.39572 0.79159 0.46806 0.91551-0.26201 1.1838-0.22873 2.3908-0.22527 3.5954-0.82105-1.8282-0.22456 1.2861-1.0419-0.52916 0.20094 0.65056-0.2233 3.0324-0.36739 1.4232-0.13314-1.1786 1.0438-1.8112 0.78195-2.9991 0.0583-1.219 0.11656-2.4379 0.17484-3.6568-0.89163 0.55337-0.58253 1.7762-1.1266 2.5234 0.15594 1.8909-0.38815 1.0117-0.28186-0.39193-0.0939-2.4674-0.18779-4.9348-0.28168-7.4022 1.2866 0.0786-0.42641 2.9373 0.82919 1.4199-0.33472-2.1988 0.90399 0.50564 0.36951-1.5624-0.13506-1.1977-0.59026-1.5052-0.5618-2.6146-0.53304-1.7299-0.25834 1.0645-0.37022 1.6936-0.42709-0.69294-0.56161-0.92796-0.24135 0.6837-0.25768 1.3786-0.82604-0.91645-0.79613-1.552-0.77469-2.1749-1.5885-4.3303-2.9829-6.1956-0.58985-1.1595-1.5492-2.0317-2.4298-2.965 1.6352 0.95184 0.4547-0.97387-0.48687-1.1883-1.0996 0.0563-1.8812-0.78926-2.7427-1.4248-1.0104-0.87783-2.2223-1.443-3.385-2.0846 0.70692-0.91163-1.7807-0.11022-1.6785-0.9636 1.4223-0.91073-0.99223 0.48887-1.2108-0.80538-1.1488-0.18268-1.7768-0.37365-2.3355-0.84591-1.1806 0.12807-2.2232-0.31633-3.2417-0.86001 1.236 0.49269 2.2431-0.25446 0.92604-0.12946-0.1984-0.77481-1.3844 0.30736-1.0427-0.66149-0.0696 0.5611-2.1469 0.58029-1.329-0.15862 1.9912 0.75998-0.80799-1.1577-0.94866 0.12924-0.81581 0.34481-2.4524-1.6487-2.1443-0.64301 0.21277 1.308-1.5368-1.0723 0.0407-1.1717-1.4699-0.29762-2.4054 1.6959-3.8841 1.0867-1.3016 0.6815 1.0467 0.51811 1.6909 0.59095 0.86231 0.48328 1.8749 0.37604 2.8619 0.7844 0.89706 0.35859 2.2958 0.50914 2.5628 1.234 1.0753 0.0967 1.9796 0.91445 2.9861 1.3011 0.0877-0.44929 1.5571 1.2985 2.3297 1.6358 1.1284 0.74448 1.629 0.84648 2.1814 1.9831 0.64188 1.0063 1.6983 1.0238 2.3931 1.8474 1.326 0.97125 0.30161 1.0923 0.32762 1.0616 1.0756 0.1837 1.5497 1.3324 2.2011 2.2492 0.88406 0.5966 1.0256 2.4396 1.2199 2.4465 0.27868 0.23534-0.12497 0.54644 0.61471 0.96709 1.1924 2.6189 1.746 5.4436 2.2193 8.2607-0.0414 2.7821 0.25398 5.5984-0.56755 8.3013-0.6225 3.3973-2.2705 6.4906-4.007 9.4284-0.98276 0.90711-1.4855 2.5111-2.8283 2.8955 0.24877-1.1029 1.2816-0.53155 1.7093-1.9238 1.318-2.0882 2.7463-4.2063 3.5757-6.5134-0.2941 0.0214-0.99627 1.7948-1.4447 2.4786-1.2898 2.4424-3.0882 4.5625-4.8984 6.6328 0.95723 0.076 0.17976 0.3958-0.64537 1.4059-1.6052 1.2861-3.3886 2.4284-5.156 3.4845-2.1943 0.95723-4.3882 1.916-6.7875 2.2083-1.6456 0.50024-3.3159 0.3648-5.0045 0.35465zm0.61093-0.26262c1.6277 0.0972 2.0868-0.1282 0.25857-0.45399-0.75739-0.0722-3.3547-0.15279-1.6512 0.47466 0.46416-7e-3 0.92861-0.014 1.3926-0.0207zm3.6004-0.2591c1.8359-0.15232-1.7061-0.24445 0 0zm-9.2931-0.39299c1.7133-1.2725-1.5748 0.57245 0 0zm1.51 0.10753c2.1148-0.14731-2.0942-0.18692 0 0zm9.1943 0.0377c1.4944-0.60643-2.3866-0.83267-0.41034-0.0557 0.10651 0.119 0.27765 0.0242 0.41034 0.0557zm-11.763-0.40983c1.7132-1.2724-1.5748 0.57245 0 0zm13.085-0.0145c1.2636-0.32851 1.5383-0.5717 2.0505-0.79892 0.59019 0.0913 0.79403-0.72896 1.8761-0.78452 0.35473 0.13789 1.0366-1.0966-0.39276-0.24452-1.4263 0.46003-2.7139 1.5739-4.2615 1.4621-0.15353 0.76739 0.20633 0.46303 0.7276 0.36589zm-9.3486-1.1801c1.836-0.15232-1.7061-0.24445 0 0zm-3.5498-1.0374c1.296-0.21235-1.3035-0.38083 0 0zm9.525 0c1.296-0.21237-1.3034-0.38081 0 0zm8.3344 0c0.57358-0.30291-0.5475-0.33005 0 0zm-7.1658-0.28548c1.836-0.15232-1.7061-0.24445 0 0zm0.28664-1.0374c0.57359-0.30292-0.54753-0.33001 0 0zm1.3009-0.28547c1.836-0.15232-1.7061-0.24445 0 0zm0.8158-0.2437c0.57358-0.3029-0.5475-0.33003 0 0zm9.0151-0.61697c1.1458-0.19129 1.9294-2.0802 0.47041-0.71629-0.37646 0.44503-2.3118 1.7207-0.47041 0.71629zm-0.58447-5.9976c0.62088-0.30133 1.7938-2.5733 0.55988-0.97207-0.0673 0.23348-0.89333 0.96574-0.55988 0.97207zm-38.329-2.1167c0.57358-0.3029-0.54751-0.33003 0 0zm40.746-1.3229c0.57358-0.30291-0.5475-0.33005 0 0zm0-1.5875c0.57358-0.30291-0.5475-0.33005 0 0zm6.0465 0c0.62058-0.87947 0.78413-2.3784 1.2296-3.4953 0.0823-1.9405-0.259-0.27258-0.52066 0.7172-0.13101 0.87801-0.74347 2.1904-0.7089 2.7781zm-47.586-0.26459c0.57358-0.3029-0.54751-0.33003 0 0zm42.907-0.61736c0.3139-0.89365-0.62608-4e-3 -0.0428 0.0428zm0.52917-1.3229c0.3139-0.89365-0.62609-4e-3 -0.0428 0.0428zm5.5622-2.8884c0.13281-1.898-0.2933-0.96357-0.121 0.46302 0.0403-0.15434 0.0807-0.30868 0.121-0.46302zm-4.548-2.3151c0.57361-0.30289-0.54751-0.33004 0 0zm4.8126-0.59531c0.13281-1.898-0.2933-0.96357-0.121 0.46302 0.0403-0.15434 0.0807-0.30868 0.121-0.46302zm7.2411-1.3891c0.0896-0.6758 0.7078-3.0655-0.17594-2.5465-0.2261 1.086 8e-3 2.4234-0.0431 3.6049 0.0731-0.35273 0.14581-0.70583 0.21905-1.0583zm-12.026-0.46853c0.2687-2.0249-0.57591 0.27656 0 0zm12.672-0.45751c0.57361-0.3029-0.54751-0.33006 0 0zm-12.965-1.8521c0.57358-0.3029-0.5475-0.33003 0 0zm13.229-1.1528c0.47865-1.8815 0.99651 0.5305 0.9227-1.3629 0.0116-1.4088-0.60168-2.7418-0.85974-4.1179-0.39975 0.93198 0.46481 2.2083 0.56562 3.2766 0.18115 2.2723-0.74138-1.9077-0.69363-0.8964-0.18252 0.91295 0.69522 2.3684-0.23233 2.9002-0.23471 0.42841-0.15025 0.86215 0.29738 0.20042zm1.6288-0.0989c0.16693-2.0704-0.36905-0.2444-0.0613 0.1506l0.0609-0.1506zm-1.8496-3.5986c0.0743-0.4164-0.46509-3.3325-0.74778-1.7688 0.26605 0.4042 0.37241 1.8747 0.74778 1.7688zm-1.8898-0.44131c0.39584-1.219-0.41696-2.0033-0.77007-3.0036 0.388-0.91163-1.7921-2.1589-0.90227-0.93048 0.67133 0.72151 0.23491 1.9563 1.2694 2.5206 0.0459 0.51224-0.19733 1.1793 0.40297 1.4135zm-59.306-0.60485c1.0055-0.31019 0.08708-2.794-0.42698-1.1283-0.3513 0.25218-0.02536 1.4746 0.42698 1.1283zm59.839-1.0369c0.24112-0.83868-1.0389-1.9439-0.8252-2.8034 0.92743-0.8082-0.73099-1.7626-0.99876-2.6384-1.278-2.0639-3.0361-3.8493-5.0653-5.1812 1.9152 2.0406 4.0413 3.9146 5.3705 6.4182 1.0674 1.379 0.3607 1.6607-0.46164 0.24754-1.332-0.75982-1.5915 0.7536-0.27904 0.83657-0.24693-1.8783 0.80223 0.45676 1.2984 0.99417 0.11526 0.52751 0.58279 2.1791 0.96107 2.1266zm-2.6119-3.4736c-0.35716 0.47123-0.23078-1.0938 0.17639-0.17639l-0.13356 0.13356zm3.2194 2.8661c-0.0937-0.43948-0.48342-2.7005-1.2912-1.9454 0.42867 0.48949 0.80531 1.9457 1.2912 1.9454zm2.5243-0.13203c0.31859-1.2293-1.012-1.314 0 0zm-0.45199-1.4111c0.3139-0.89366-0.62608-4e-3 -0.0428 0.0428zm-12.215-0.17639c0.57358-0.3029-0.5475-0.33003 0 0zm10.054-0.26458c0.57362-0.3029-0.54752-0.33006 0 0zm1.8628-0.26459c0.14252-0.21-1.2184-2.8233-1.0405-1.7802 0.37365 0.52784 0.54561 1.4603 1.0405 1.7802zm-2.1274-0.26458c0.57358-0.3029-0.5475-0.33003 0 0zm-10.583-0.52917c0.57358-0.3029-0.5475-0.33003 0 0zm-0.52917-0.79375c0.57358-0.3029-0.5475-0.33003 0 0zm7.5338-0.083c2.0229-0.7445-0.84073 0.27385-0.0936-0.75679-0.39868-1.1251-0.0197-0.65372-1.2378-1.2361-1.5199-1.3474 1.4701 0.0786-0.38149-0.65475 1.1969 1.2358 1.3533 0.067 0.15881-0.70656-0.93255-0.81926-1.738-1.9464-2.8283-2.3803-0.6753-0.54047-1.7067-2.0149-2.4017-1.616 0.62033 0.72366 0.66424 0.79902 1.6239 1.5742 0.90399-0.14362 1.2455 1.5261 1.71 0.91114-0.57923 0.90644 1.7033 0.82551 1.4442 2.17-0.43898 1.2285 1.8736 1.4808 1.4837 2.7748 0.17414-0.0266 0.34828-0.0531 0.52243-0.0797zm-0.35766-0.71072c-1.1664-0.88572-0.4931-1.0724 0.0999 1e-5zm-4.5147-5.0271c-1.2895-1.0313 0.3887-0.45493 0 0zm-0.80937-0.52917c-0.57358-0.30292 0.54753-0.33001 0 0zm11.112 6.35c0.57361-0.30289-0.54751-0.33004 0 0zm-0.24896-0.52916c0.43125-0.49305-1.1434-0.79778 0 0zm-13.229-0.26459c0.43127-0.49299-1.1434-0.79782 0 0zm12.438 0c-0.0106-0.9565-1.1273-1.4234-0.13229 0zm-2.929-1.3229c0.57362-0.3029-0.54752-0.33006 0 0zm2.1167 0c0.57359-0.30291-0.54751-0.33005 0 0zm-12.932-0.52917c-0.13558-0.75788-1.3478-1.1955-0.0999-1e-5zm11.443-0.0259c0.12507-0.80581-2.3953-1.0702-0.59479-0.30118 0.20312 0.0858 0.3753 0.2571 0.59479 0.30118zm1.2317-0.76781c0.27734-0.92331-1.0688-1.0132 0 0zm-2.6532-0.52917c0.57361-0.30289-0.54751-0.33004 0 0zm-0.51355-0.26458c0.43127-0.49299-1.1434-0.79782 0 0zm-4.4979-0.26458c0.43124-0.49304-1.1434-0.79778 0 0zm6.8959 0c-0.13559-0.75788-1.3478-1.1956-0.0999-1e-5zm-0.94913-1.0583c0.77683-0.1065-1.7909-2.031-0.47989-0.42809 0.15418 0.1938 0.1283 0.55881 0.47989 0.42809zm-1.1675-0.26458c-0.13559-0.75787-1.3478-1.1956-0.0999-1e-5zm-6.8823-0.26458c0.11803-0.50598-2.3292-1.6168-0.58526-0.42071 0.20241 0.10743 0.3409 0.4307 0.58526 0.42071zm2.7322-7e-3c0.0534-0.3022-2.0886-2.26-1.6787-1.3232 0.56551 0.40654 1.0702 1.0342 1.6787 1.3232zm-4.2951-1.4014c0.55671-0.52562 1.3579-0.2793-0.0995-0.97276-1.1995-0.53279 0.11119 1.4504 0.0221 1.2723l0.0473-0.18286zm-1.1122-0.17901c0.57359-0.30291-0.54751-0.33005 0 0zm3.175 0c0.57359-0.30291-0.54751-0.33005 0 0zm1.3229-0.26459c0.57358-0.3029-0.5475-0.33003 0 0zm-0.51355-0.26458c0.43123-0.49303-1.1434-0.79779 0 0zm-5.3073-0.26458c0.57362-0.3029-0.54752-0.33006 0 0zm3.175 0c0.57362-0.3029-0.54752-0.33006 0 0zm-0.51355-0.26459c0.43128-0.493-1.1434-0.7978 0 0zm9.6417-0.83552c2.1148-0.14731-2.0942-0.18692 0 0zm-15.743-0.22281c0.57358-0.3029-0.5475-0.33003 0 0zm1.3229-0.26458c0.57359-0.30291-0.54751-0.33005 0 0zm-0.79375-0.26459c0.57358-0.3029-0.5475-0.33003 0 0zm-2.9104-0.26458c0.57358-0.3029-0.5475-0.33003 0 0zm1.2093-0.29482c0.458-1.4005-1.1812 0.75455-0.0185 0.03zm0.37819 0.29482c0.57358-0.3029-0.5475-0.33003 0 0zm14.42 0c1.296-0.21234-1.3034-0.38085 0 0zm-13.361-0.26458c0.57362-0.3029-0.54752-0.33006 0 0zm-0.28663-0.55006c1.8361-0.1523-1.7061-0.24447 0 0zm9.8116-0.24369c0.57362-0.3029-0.54752-0.33006 0 0zm-12.303-0.26459c1.0375-1.2193-1.6866-0.70927 0 0zm-11.774-0.52916c0.57359-0.30291-0.54751-0.33005 0 0zm7.1437 0c0.57359-0.30291-0.54751-0.33005 0 0zm13.494 0c0.57359-0.30291-0.54751-0.33005 0 0zm-18.245-0.35278c1.2303-0.22894-1.2019-0.42969-0.0075 0zm5.5446 0.0882c0.57358-0.3029-0.5475-0.33003 0 0zm0.52917 0c0.57358-0.3029-0.5475-0.33003 0 0zm2.3812-8e-3c0.49401-0.31799-2.0687-0.8914-0.26459 0h0.18888zm2.1167 8e-3c0.57361-0.30289-0.54751-0.33004 0 0zm9.2604 0c0.57358-0.3029-0.5475-0.33003 0 0zm-15.214-0.27268c1.2498-0.0826-2.309-1.0529-0.63511-0.15396 0.17532 0.19321 0.40186 0.1576 0.63511 0.15396zm8.3344 8e-3c0.57361-0.30289-0.54751-0.33004 0 0zm-12.435-0.26458c0.57359-0.30291-0.54751-0.33005 0 0zm5.638-4e-3c0.0789-0.8595-1.8329-0.62983 0 0zm0.84428 4e-3c1.296-0.21235-1.3034-0.38083 0 0zm1.7198 0c0.57359-0.30291-0.54751-0.33005 0 0zm-0.66146-0.26459c1.296-0.21234-1.3034-0.38083 0 0zm-3.5719-0.26458c0.57358-0.3029-0.5475-0.33003 0 0zm-0.22049-0.61736c0.3139-0.89366-0.62608-4e-3 -0.0428 0.0428zm8.158 0.0882c0.57358-0.3029-0.5475-0.33003 0 0zm0.26458-0.52916c0.57359-0.30291-0.54751-0.33005 0 0zm-0.13229-1.0583c1.296-0.21236-1.3034-0.38081 0 0zm2.6458-0.52916c1.296-0.21234-1.3034-0.38085 0 0zm5.8208-0.79375c1.296-0.21237-1.3034-0.38081 0 0zm1.7198-0.26459c0.57358-0.3029-0.5475-0.33003 0 0zm-3.7042-0.26458c0.57358-0.3029-0.5475-0.33003 0 0zm-2.249-0.83553c2.1148-0.14731-2.0942-0.1869 0 0zm-23.135-2.604c0.43125-0.49304-1.1434-0.79778 0 0zm11.758 0c1.296-0.21235-1.3034-0.38083 0 0zm-4.1231-1.0792c1.8361-0.15231-1.7061-0.24445 0 0zm-5.2696-0.50828c0.57359-0.30291-0.54751-0.33005 0 0zm7.1437 63.235c-0.57358-0.3029 0.54751-0.33003 0 0zm2.9104 0c-0.57358-0.3029 0.54751-0.33003 0 0zm-15.875-0.26458c-0.57358-0.30291 0.54751-0.33005 0 0zm16.404 0c-0.57358-0.30293 0.54753-0.33003 0 0zm0.79375-0.26459c-0.57358-0.30292 0.54753-0.33001 0 0zm1.3229 0c-0.57358-0.3029 0.54751-0.33003 0 0zm-23.812-0.26458c-0.57359-0.3029 0.54751-0.33003 0 0zm3.175 0c-0.57358-0.3029 0.5475-0.33003 0 0zm19.844 0c-0.57358-0.3029 0.54751-0.33003 0 0zm-22.49-0.26458c-0.57359-0.30291 0.54751-0.33005 0 0zm23.019 0c-0.57358-0.30291 0.54751-0.33005 0 0zm-23.548-0.26459c-0.57359-0.3029 0.54751-0.33003 0 0zm22.225 0c-0.57358-0.3029 0.54751-0.33003 0 0zm-22.754-0.26458c-0.57359-0.3029 0.54751-0.33003 0 0zm-1.8692-0.32865c-1.1448-0.56675-0.57218-1.3517 0.34166-0.0816 0.49348 0.22474-0.19742 0.0643-0.34166 0.0816zm1.34 0.0641c-0.57358-0.30291 0.54751-0.33005 0 0zm-0.13229-1.0583c-1.296-0.21235 1.3034-0.38082 0 0zm27.914 0c-0.57358-0.3029 0.54751-0.33003 0 0zm-22.225-0.52916c-0.57358-0.30291 0.54751-0.33005 0 0zm-8.7458-0.35278c-0.47483-0.38019-1.4305-1.4989-2.2668-2.1297-0.59431-0.44541 0.44634 1.5396-0.73411-0.16105-0.5668-0.51767-0.41931-1.9274-1.4517-1.6646-0.31362 0.10764 0.578-1.1547-0.49972-0.60023-0.97861-1.319-0.93176-0.13798-0.69071-1.6446-0.37468-1.0335-1.6104-1.517-1.1788-1.9359-0.91893 0.40003-0.60689-0.1605-0.98564-0.99683-0.60157-0.91987-0.73314-1.1605-0.27744-1.6312-1.4303 0.98623 0.05539-2.4028-0.89145-1.0539-0.95122 0.82475 0.20354-1.0773-0.67275-0.90602-0.41878-2.0949-0.3243-4.2474-0.49603-6.37 0.35244 2.149 0.61911 4.4222 1.808 6.2711 0.12966 1.2942 0.61412 2.4812 1.1561 3.6508 0.53624 0.40877 0.8836 1.9015 1.6327 2.6636 1.4139 2.621 3.9008 4.3663 5.9013 6.5086h-0.18888zm-2.5989-2.2931c-0.13559-0.75787-1.3478-1.1956-0.09989-1e-5zm-2.1334-2.3812c0.43126-0.49301-1.1434-0.79779 0 0zm-0.54478-0.79375c0.57359-0.3029-0.54751-0.33003 0 0zm-1.8521-2.9104c0.57359-0.30291-0.54751-0.33005 0 0zm-0.26458-0.52917c0.57358-0.3029-0.54751-0.33003 0 0zm-0.26458-0.52917c0.57359-0.3029-0.54751-0.33003 0 0zm-0.79375-1.5875c0.57359-0.3029-0.54751-0.33003 0 0zm22.49 11.061c-2.2488-0.12614 2.2021-0.19483 0.03829 9e-5l-0.03829-4.8e-4zm-14.817-0.213c-0.57359-0.3029 0.54751-0.33003 0 0zm8.3344 0c-1.296-0.21235 1.3034-0.38083 0 0zm1.7198 0c-0.57361-0.30289 0.54751-0.33004 0 0zm2.6458 0c-0.57358-0.3029 0.5475-0.33003 0 0zm3.3073 0c-1.296-0.21235 1.3035-0.38083 0 0zm-7.5406-0.52917c-0.57361-0.30289 0.54751-0.33004 0 0zm-7.1438-0.26458c-0.57358-0.3029 0.54751-0.33003 0 0zm6.6146 0c-0.57358-0.3029 0.5475-0.33003 0 0zm-5.5122-0.35278c-0.35716 0.47123-0.23078-1.0938 0.17639-0.17639l-0.13356 0.13356zm4.8507 0.0882c-1.296-0.21235 1.3035-0.38083 0 0zm27.302 0c0.23779-0.82631 1.7211-1.5053 0.23097-0.10904l-0.0987 0.10904zm-27.964-0.26459c-0.57358-0.3029 0.5475-0.33003 0 0zm-0.79375-0.26458c-0.57358-0.3029 0.5475-0.33003 0 0zm-0.95249-0.80617c-1.4151-0.70829-2.7335-1.8262-3.8993-2.9558-0.72533 0.77013-0.22451-1.2141-1.5037-1.5183-1.1801-1.6178 0.73 0.0466 1.2439 0.6725 1.3736 1.3394 2.737 2.6908 4.3178 3.7892l-0.15874 0.0124zm30.29 0.0124c-0.26404-0.38875 0.88191-0.84573 0.13229 0zm-29.338-0.52917c-0.57358-0.3029 0.5475-0.33003 0 0zm-4.7625-1.5875c-0.57359-0.3029 0.54751-0.33003 0 0zm25.898 0c-0.26404-0.38875 0.88191-0.84571 0.13229 0zm10.085 0c-0.57358-0.30292 0.54753-0.33001 0 0zm-37.042-1.0583c-0.57359-0.3029 0.54751-0.33003 0 0zm39.127-0.52917c-0.26404-0.38875 0.88191-0.84571 0.13229 0zm-45.131-0.38987c-0.52533-6.3e-4 -0.62005-1.3641 0.14811-0.14811l-0.13356 0.13356zm44.602-0.13929c-0.26408-0.38874 0.88193-0.84574 0.13229 0zm-8.2021-0.52917c-0.26404-0.38876 0.88193-0.84573 0.13229 0zm10.085-1.0583c-0.57358-0.30291 0.54751-0.33005 0 0zm7.1438 0c-0.57358-0.30291 0.54751-0.33005 0 0zm0-0.79375c-0.57358-0.30291 0.54751-0.33005 0 0zm-50.52-0.26459c-1.2898-1.0316 0.38884-0.45473 0 0zm51.314-0.26458c-0.57358-0.3029 0.54751-0.33003 0 0zm-7.6729-0.26458c-0.57358-0.30291 0.54751-0.33005 0 0zm7.9375-0.26459c-0.57358-0.3029 0.54751-0.33003 0 0zm0.0156-0.52916c-1.2899-1.0318 0.3889-0.45465 0 0zm-1.3385-0.26459c-0.57358-0.3029 0.54751-0.33003 0 0zm1.6097-0.46466c-0.27515 0.66239 0.14052-2.4887 0.50697-2.2193-0.0324 0.99767 0.19989 2.1215-0.50697 2.2193zm-6.6368-0.85825c-0.57358-0.30291 0.54751-0.33005 0 0zm5.6885 0c-3.1291-0.65638 1.5234-0.46737 0 0zm1.7639-0.0882c-0.35716 0.47123-0.23078-1.0938 0.17639-0.17639l-0.13356 0.13356zm-7.1878-0.44097c-0.57358-0.30292 0.54753-0.33001 0 0zm5.6394-0.26458c-0.47818-0.31433 0.57028-2.5559 0.54551-2.5915-0.26331 0.74088-0.0777 2.2359-0.54551 2.5915zm-55.646-0.26459c-0.57359-0.3029 0.54751-0.33003 0 0zm57.459-0.0882c-0.35716 0.47124-0.23077-1.0939 0.17638-0.17639l-0.13355 0.13356zm-0.57327-0.70556c-0.57358-0.3029 0.54751-0.33003 0 0zm0.85346-0.26458c-1.5487-0.44232 1.0958-2.0832-0.0334-0.79835-0.54455 0.22717 0.31726 0.70862 0.0334 0.79835zm0.46946 0c-0.57358-0.3029 0.54751-0.33003 0 0zm-58.429-1.4111c-0.35716 0.47123-0.23078-1.0938 0.17639-0.17639l-0.13356 0.13356zm56.91-0.11638c-0.69507 0.67748-0.54353-2.775-0.10597-0.70105 0.0652 0.24982 0.28948 0.44286 0.10597 0.70105zm3.1068-0.85376c-0.57358-0.3029 0.54751-0.33003 0 0zm-3.1249-1.1245c-0.21711 1.2502-0.20413-2.8729 0.121-0.46302-0.0403 0.15434-0.0807 0.30868-0.121 0.46302zm2.8879-0.27009c-0.53731-0.044 0.27927-1.4405 2e-5 0zm-2.4088-0.45751c-0.57358-0.30293 0.54753-0.33003 0 0zm-60.06-0.26468c-0.57359-0.3029 0.54751-0.33003 0 0zm0.52917-0.26458c-0.57359-0.3029 0.54751-0.33003 0 0zm59.986-2.6e-4c-0.77929-0.34005 0.47719-3.2501 0.13983-1.4939-0.0698 0.4572 0.0484 1.1671-0.13983 1.4939zm-6.5401-1.3227c-0.57358-0.3029 0.54751-0.33003 0 0zm-53.166-2.2491c-0.06734 1.9321-0.76463 1.3944-0.5269-0.16071 0.39974-1.4459 1.1354-2.0147 0.5859-0.13078l-0.03747 0.18512zm3.7334-1.5433c-0.35716 0.47123-0.23078-1.0938 0.17639-0.17639l-0.13356 0.13356zm0.74965-0.17639c-0.57359-0.3029 0.54751-0.33003 0 0zm0-0.52916c-0.57359-0.30291 0.54751-0.33005 0 0zm48.463-1.4111c-0.35716 0.47123-0.23078-1.0938 0.17639-0.17639l-0.13356 0.13356zm6.35-1.7639c-1.1655-0.34246 0.16482-2.3566 0.0882-0.66146-0.0731 0.15453 0.13625 0.668-0.0882 0.66146zm-57.194-1.8521c-0.57359-0.30291 0.54751-0.33005 0 0zm48.154-5.5562c-0.57358-0.30291 0.54751-0.33005 0 0zm1.3229-4.7625c-0.57358-0.30291 0.54751-0.33005 0 0zm-47.393-0.52917c0.13563-0.7579 1.3478-1.1955 0.0999-1e-5zm2.6782-3.175c-0.57358-0.3029 0.54751-0.33003 0 0zm1.3229 0c-0.57359-0.3029 0.54751-0.33003 0 0zm-0.52917-0.52917c-0.57358-0.3029 0.54751-0.33003 0 0zm53.71-0.31616c-2.2488-0.12613 2.2021-0.19484 0.0383 8e-5l-0.0383-4.8e-4zm-52.917-0.213c-0.57359-0.30292 0.54752-0.33005 0 0zm49.587-0.0313c-0.5897 0.1364-3.4498-0.61221-1.7368-0.4191 0.69378 0.10364 2.6209-0.10874 2.452 0.44386-0.23841-8e-3 -0.47682-0.0165-0.71523-0.0248zm-15.456-0.49786c-0.57358-0.30292 0.54753-0.33001 0 0zm17.727-0.26458c-0.57358-0.30291 0.54751-0.33005 0 0zm0.52916-0.26459c-0.57358-0.30292 0.54753-0.33001 0 0zm-0.55121-0.55005c-1.4214-0.13997 1.3285-0.25183 0.12968 5e-3zm-1.5654-1.302c-0.57358-0.3029 0.54751-0.33003 0 0zm1.1906 0c-1.296-0.21237 1.3034-0.38081 0 0zm-6.4823-0.26458c-0.57358-0.30291 0.54751-0.33005 0 0zm-22.637-0.79375c-0.77348-0.33884 0.93801-0.71232 0.0913 0zm0.94166 0c-0.57358-0.30291 0.54751-0.33005 0 0zm-12.391-1.1465c-0.35716 0.47123-0.23078-1.0938 0.17639-0.17639l-0.13356 0.13356zm1.0142-0.97014c-0.57361-0.30289 0.54751-0.33004 0 0zm-1.3229-0.79375c-0.57358-0.3029 0.5475-0.33003 0 0zm1.2946 0c-0.52937-0.71502 1.0902-1.2526 0 0zm0.55747 0c-0.57358-0.3029 0.5475-0.33003 0 0zm0.82131-1.13c-0.53729-0.044 0.27926-1.4405 3e-5 0zm30.633 0.0717c-0.26404-0.38876 0.88191-0.84572 0.13229 0zm-33.517-0.72397c-0.23607 1.3815-0.05343-1.5477-0.10618-2.0534 0.0629 0.68345 0.33858 1.3737 0.10618 2.0534zm2.5762-0.32131c-0.92202 0.90306 0.25788-2.3809 0.38116-0.31633-0.12705 0.10544-0.2541 0.2109-0.38116 0.31633zm-2.1009-1.336c-0.57359-0.30291 0.54751-0.33005 0 0zm0.23236-1.612c-0.66619 1.9717-0.96712 0.32471-0.13563-0.64951 0.6575-1.523 2.3798-1.9607 3.8715-2.2104 1.2353 1.1166-1.5972-0.032-2.0657 0.82825-0.77907 1.0405-0.73125 0.61891-1.5792 1.8629l-0.08969 0.16622zm28.74 1.0829c-1.296-0.21234 1.3034-0.38085 0 0zm1.4552-0.16025c-2.3789 0.47572 0.93957-0.42869 0.86983-0.56105-0.61119 2e-3 -3.6675 0.31767-1.9803 0.026 1.023-0.50455 2.1247 0.0654 3.0458-0.33559 1.5744-1.1594-0.91582 1.3158 0.76262 0.25991 0.85868-0.33587-1.1343 0.85758-1.8262 0.47449-0.29058 0.0454-0.58115 0.0908-0.87173 0.13625zm-30.162-0.10433c-0.57362-0.3029 0.54752-0.33006 0 0zm34.396 0c-0.57358-0.30291 0.54751-0.33005 0 0zm-7.5406-0.32597c-2.3688-4e-3 1.5125-0.33001 0.54828 0h-0.54828zm-2.5135-0.2032c-0.57358-0.3029 0.54751-0.33003 0 0zm7.1438-0.26458c-0.57358-0.30291 0.54751-0.33005 0 0zm-29.391-0.5793c-1.5491 0.16245 0.72377-0.33481 0.03862-0.66989 0.84816 0.26822 0.77084 0.2724-0.03862 0.66989zm29.92 0.31471c-0.57358-0.3029 0.54751-0.33003 0 0zm0.52916-0.26458c-0.57358-0.30292 0.54753-0.33001 0 0zm-11.642-0.26458c-0.57358-0.30291 0.54751-0.33005 0 0zm-0.52917-0.26459c-0.57358-0.3029 0.54751-0.33003 0 0zm-1.1906-0.26458c-1.296-0.21234 1.3034-0.38085 0 0zm-1.0583-0.26458c-1.296-0.21237 1.3034-0.38081 0 0zm-2.249-0.52917c-0.57358-0.30292 0.54753-0.33001 0 0zm-2.3812-0.52917c-0.57361-0.30289 0.54751-0.33004 0 0z" stroke-width=".26458"/>
</svg>